<?xml version="1.0" encoding="UTF-8"?>
<svg version="1.1" xmlns="http://www.w3.org/2000/svg" width="1024" height="1024">
<path d="M0 0 C0.73734375 -0.02835937 1.4746875 -0.05671875 2.234375 -0.0859375 C4.25 0.375 4.25 0.375 5.95703125 2.12109375 C8.74938864 6.98873791 8.68507609 12.07284241 7.66015625 17.49609375 C5.45453849 25.3814139 2.09958173 32.74564567 -2.75 39.375 C-3.41 39.375 -4.07 39.375 -4.75 39.375 C-4.95238281 39.94347656 -5.15476562 40.51195312 -5.36328125 41.09765625 C-10.57616172 49.65852755 -24.472658 54.6037553 -33.65039062 56.89160156 C-45.24877365 59.56192696 -56.7396853 60.43293104 -68.62109375 60.6015625 C-70.06867569 60.62391968 -70.06867569 60.62391968 -71.54550171 60.64672852 C-76.46836444 60.71635925 -81.38819403 60.74971248 -86.31152344 60.73339844 C-88.14909226 60.74622242 -89.98665768 60.75954733 -91.82421875 60.7734375 C-92.67954697 60.7599527 -93.53487518 60.7464679 -94.41612244 60.73257446 C-97.08105647 60.71039439 -97.08105647 60.71039439 -100.75 61.375 C-102.84980803 63.58944852 -102.84980803 63.58944852 -103.75 66.375 C-104.19859375 67.4990625 -104.6471875 68.623125 -105.109375 69.78125 C-105.58325446 71.14227785 -106.04605012 72.5071959 -106.5 73.875 C-106.74951416 74.62531494 -106.99902832 75.37562988 -107.25610352 76.14868164 C-109.75373954 83.94391493 -111.74209467 91.86585564 -113.6875 99.8125 C-113.84883423 100.46186523 -114.01016846 101.11123047 -114.1763916 101.78027344 C-114.63618342 103.64156531 -115.08203811 105.50628308 -115.52734375 107.37109375 C-115.91780884 108.99809204 -115.91780884 108.99809204 -116.31616211 110.65795898 C-116.97811695 113.46040956 -116.97811695 113.46040956 -115.75 116.375 C-111.02048457 116.26194385 -106.29143551 116.13492703 -101.5625 116 C-100.86137085 115.98054321 -100.1602417 115.96108643 -99.43786621 115.94104004 C-89.53552613 115.65675419 -79.73650619 115.11114532 -69.90942383 113.77197266 C-67.546875 113.484375 -67.546875 113.484375 -63.75 113.375 C-62.02612305 114.7487793 -62.02612305 114.7487793 -60.75 116.375 C-59.83014172 124.55337631 -64.17950804 134.28602576 -69.0859375 140.65234375 C-81.58617507 153.59273053 -97.15073747 156.49771288 -114.375 157 C-115.47457031 157.03867187 -116.57414063 157.07734375 -117.70703125 157.1171875 C-120.38786459 157.21043388 -123.0687089 157.29623267 -125.75 157.375 C-127.59899109 164.72147057 -129.44608968 172.06782717 -131.20721436 179.4359436 C-131.84529107 182.10212501 -132.49240949 184.76608049 -133.14013672 187.42993164 C-133.46359142 188.76919046 -133.78325042 190.10937165 -134.09912109 191.45043945 C-139.66948068 215.04574986 -149.37082455 234.96070876 -169.5 249.40234375 C-175.27542676 252.9078612 -181.37022751 255.21161694 -187.75 257.375 C-188.82314453 257.75785156 -188.82314453 257.75785156 -189.91796875 258.1484375 C-201.0458117 261.53837641 -216.26037067 261.71635749 -227.0625 257.46484375 C-228.75 256.375 -228.75 256.375 -229.5 253.75 C-229.5825 252.96625 -229.665 252.1825 -229.75 251.375 C-224 246.375 -224 246.375 -221.75 246.375 C-221.75 245.715 -221.75 245.055 -221.75 244.375 C-220.7290625 243.385 -220.7290625 243.385 -219.6875 242.375 C-203.24558152 226.34991889 -198.09529035 201.39286678 -192.875 179.9375 C-192.56433594 178.66245605 -192.25367188 177.38741211 -191.93359375 176.07373047 C-191.50626953 174.27572998 -191.50626953 174.27572998 -191.0703125 172.44140625 C-190.81523926 171.36834229 -190.56016602 170.29527832 -190.29736328 169.18969727 C-189.62273989 166.1984966 -189.62273989 166.1984966 -189.75 162.375 C-195.95566299 163.03855734 -200.23913256 165.74773676 -205.53125 168.87890625 C-208.98083838 170.48229502 -210.99924535 170.82403401 -214.75 170.375 C-217.625 168.5 -217.625 168.5 -219.75 165.375 C-221.41033065 157.21772335 -218.52533551 149.90754523 -214.3125 143.02734375 C-205.27849536 130.36670744 -191.4570417 124.23202312 -176.48046875 121.63671875 C-175.90941406 121.55035156 -175.33835937 121.46398437 -174.75 121.375 C-174.65074219 120.35148437 -174.55148438 119.32796875 -174.44921875 118.2734375 C-173.62926124 111.75670712 -172.05793677 105.38822088 -170.5625 99 C-170.33164703 98.00554367 -170.33164703 98.00554367 -170.09613037 96.99099731 C-167.85812821 87.3958563 -165.26155643 78.01947806 -161.9140625 68.74609375 C-160.94388259 65.93647879 -160.23286167 63.30024337 -159.75 60.375 C-177.85793702 60.82261193 -196.6168959 67.00266355 -210.75 78.375 C-211.41 78.375 -212.07 78.375 -212.75 78.375 C-213.01941406 78.95765625 -213.28882813 79.5403125 -213.56640625 80.140625 C-214.75315036 82.38094721 -216.09232523 84.16045906 -217.6875 86.125 C-223.48464475 93.80268195 -225.36236076 102.27161514 -224.53515625 111.8671875 C-223.56256782 117.36925917 -221.63323622 120.39930577 -217.75 124.375 C-216.6053125 125.550625 -216.6053125 125.550625 -215.4375 126.75 C-214.880625 127.28625 -214.32375 127.8225 -213.75 128.375 C-214.08 129.365 -214.41 130.355 -214.75 131.375 C-218.09947751 133.0011956 -220.01671884 133.53827727 -223.6796875 132.72265625 C-235.76204222 127.45064736 -241.72709166 121.69763672 -246.75 109.375 C-251.53745126 92.73190189 -246.02955013 75.48341419 -238.12841797 60.84057617 C-234.22176009 54.05250838 -229.28803857 47.90371527 -223.75 42.375 C-223.09 42.375 -222.43 42.375 -221.75 42.375 C-221.46382812 41.54742187 -221.46382812 41.54742187 -221.171875 40.703125 C-219.11929927 37.34231419 -216.15432683 35.37493666 -213 33.125 C-212.3289624 32.64264893 -211.6579248 32.16029785 -210.96655273 31.66333008 C-182.74921304 11.6935753 -149.69023463 5.153655 -115.58203125 5.27734375 C-114.05075629 5.27921325 -112.51948073 5.28063463 -110.98820496 5.28163147 C-106.99508965 5.28541482 -103.00201182 5.29520842 -99.00891113 5.30633545 C-94.91935737 5.31664045 -90.82979743 5.32114839 -86.74023438 5.32617188 C-78.74347255 5.33683525 -70.74674096 5.3538602 -62.75 5.375 C-62.75 5.705 -62.75 6.035 -62.75 6.375 C-59.83327116 6.40200675 -56.91679323 6.42184237 -54 6.4375 C-53.175 6.44587891 -52.35 6.45425781 -51.5 6.46289062 C-50.30117188 6.46772461 -50.30117188 6.46772461 -49.078125 6.47265625 C-47.97839355 6.48051147 -47.97839355 6.48051147 -46.85644531 6.48852539 C-44.7038151 6.3725109 -42.8185865 5.96573271 -40.75 5.375 C-40.75 5.705 -40.75 6.035 -40.75 6.375 C-34.0831309 6.57702634 -28.13437976 5.89699018 -21.625 4.5 C-20.77035156 4.32597656 -19.91570312 4.15195312 -19.03515625 3.97265625 C-15.279402 3.1938132 -11.61589896 2.33605859 -7.9296875 1.265625 C-5.16050812 0.48998262 -2.85859221 0.05068426 0 0 Z " fill="#28ABFE" transform="translate(389.75,338.625)"/>
<path d="M0 0 C6.0867485 5.55307624 8.1670712 12.65912346 8.82543945 20.65307617 C9.03018856 28.23368759 7.352288 35.12125398 5.5234375 42.44140625 C5.20470524 43.76021487 4.88751087 45.07939603 4.57177734 46.39892578 C3.92378845 49.10438691 3.27170285 51.80879075 2.61523438 54.51220703 C-5.93110612 82.39481839 -5.93110612 82.39481839 -3.3515625 110.50390625 C-2.09462828 112.24841187 -2.09462828 112.24841187 -0.6640625 113.81640625 C1.6484375 116.50390625 1.6484375 116.50390625 1.515625 118.5390625 C-0.10216545 122.20459673 -3.80366255 123.09472279 -7.3515625 124.50390625 C-17.41734967 127.97486734 -29.61725855 128.10114461 -39.3515625 123.50390625 C-45.32240273 119.9144994 -48.44784105 115.14120536 -50.3515625 108.50390625 C-53.14562253 95.61269135 -49.30952158 82.4947218 -46.3671875 69.94921875 C-46.18856674 69.18390335 -46.00994598 68.41858795 -45.82591248 67.63008118 C-44.91837307 63.74959137 -43.9956526 59.87386215 -43.04516602 56.00366211 C-41.14483294 48.11259901 -39.74514658 40.67671382 -40.3515625 32.50390625 C-47.31386418 32.50390625 -51.16056168 33.85615414 -56.15234375 38.76953125 C-66.65484472 51.82770297 -69.59941909 68.42453476 -73.0703125 84.37109375 C-73.22217514 85.06813416 -73.37403778 85.76517456 -73.53050232 86.4833374 C-74.28811284 89.9688098 -75.03656733 93.455755 -75.76586914 96.94726562 C-77.10114946 103.28978641 -78.54179926 109.60322856 -80.25390625 115.85546875 C-80.67724243 117.419021 -80.67724243 117.419021 -81.10913086 119.01416016 C-82.3515625 121.50390625 -82.3515625 121.50390625 -84.74829102 122.81787109 C-95.27453281 125.59183147 -111.72209676 127.08899638 -121.3515625 121.50390625 C-124.28021378 117.62673198 -124.79667591 114.49066067 -125.0390625 109.69140625 C-125.10480469 108.52996094 -125.17054688 107.36851562 -125.23828125 106.171875 C-125.29435547 104.85123047 -125.29435547 104.85123047 -125.3515625 103.50390625 C-129.09326418 105.63816208 -132.36792966 108.0632368 -135.7265625 110.75390625 C-152.35272569 123.3259065 -172.1666395 128.58057655 -192.875 126.078125 C-204.62782788 123.92564079 -217.81097481 118.95055081 -225.1796875 109.046875 C-225.64890625 108.26957031 -226.118125 107.49226562 -226.6015625 106.69140625 C-227.97242932 104.35983461 -227.97242932 104.35983461 -229.3515625 102.50390625 C-230.0115625 102.50390625 -230.6715625 102.50390625 -231.3515625 102.50390625 C-231.4546875 101.74078125 -231.5578125 100.97765625 -231.6640625 100.19140625 C-232.2260865 96.71499612 -232.2260865 96.71499612 -233.0859375 94.2890625 C-239.15355663 75.71413411 -234.36108602 55.75003907 -226.3515625 38.50390625 C-224.25273506 34.64816562 -221.91347006 31.06672102 -219.3515625 27.50390625 C-218.69414062 26.58738281 -218.03671875 25.67085938 -217.359375 24.7265625 C-211.61256544 17.22202913 -205.03306375 11.91083498 -197.3515625 6.50390625 C-196.31386719 5.77042969 -195.27617188 5.03695313 -194.20703125 4.28125 C-191.68651391 2.71239174 -190.18719269 2.04052949 -187.3515625 1.50390625 C-185.55825406 0.8626458 -183.76676912 0.21627578 -181.9765625 -0.43359375 C-166.06796294 -5.7622964 -146.73126364 -7.17666796 -131.3125 0.44921875 C-124.29277254 4.22476938 -120.30379986 8.14008578 -117.5625 15.671875 C-115.27098371 24.30325302 -116.57182264 33.4651117 -120.3515625 41.50390625 C-122.49190652 44.99520999 -124.83576533 48.27444417 -127.3515625 51.50390625 C-128.11984375 52.49132812 -128.888125 53.47875 -129.6796875 54.49609375 C-143.66785337 71.08689343 -167.71410011 77.89648493 -188.3515625 80.50390625 C-186.580262 85.81780775 -184.31959704 88.45943302 -179.36328125 91.08984375 C-174.61441765 93.05000512 -169.93009278 93.03859446 -164.8515625 93.00390625 C-163.39387451 92.99532593 -163.39387451 92.99532593 -161.90673828 92.98657227 C-147.51607477 92.63328849 -132.59203223 87.3664738 -122.4140625 76.81640625 C-115.80101131 68.20395982 -113.30737977 57.47341665 -110.98364258 47.0559082 C-110.53346754 45.04136875 -110.06579201 43.03146089 -109.59570312 41.02148438 C-107.76582348 33.34380931 -107.76582348 33.34380931 -107.3515625 25.50390625 C-106.6915625 25.50390625 -106.0315625 25.50390625 -105.3515625 25.50390625 C-105.196875 23.86421875 -105.196875 23.86421875 -105.0390625 22.19140625 C-104.18720251 15.63325129 -103.11878829 9.09951913 -99.3515625 3.56640625 C-90.56615601 -2.47356071 -80.5566168 -3.67866436 -70.1640625 -3.74609375 C-69.35775391 -3.76671875 -68.55144531 -3.78734375 -67.72070312 -3.80859375 C-66.55764648 -3.81632812 -66.55764648 -3.81632812 -65.37109375 -3.82421875 C-64.32078979 -3.8382373 -64.32078979 -3.8382373 -63.24926758 -3.85253906 C-60.76602615 -3.38611265 -59.87452631 -2.47656856 -58.3515625 -0.49609375 C-58.2421875 1.95703125 -58.2421875 1.95703125 -58.6015625 4.75390625 C-58.71886719 5.72457031 -58.83617187 6.69523437 -58.95703125 7.6953125 C-59.15232422 9.08556641 -59.15232422 9.08556641 -59.3515625 10.50390625 C-59.45082031 11.25542969 -59.55007813 12.00695312 -59.65234375 12.78125 C-59.86836721 14.35789883 -60.10695637 15.93143829 -60.3515625 17.50390625 C-59.93648437 16.95863281 -59.52140625 16.41335938 -59.09375 15.8515625 C-54.99420028 10.83433114 -50.7152796 7.08871542 -45.2890625 3.62890625 C-44.7120459 3.26031494 -44.1350293 2.89172363 -43.54052734 2.51196289 C-29.74092606 -5.99407851 -14.20010431 -10.0359387 0 0 Z M-175.3515625 30.50390625 C-176.13853516 31.25607422 -176.13853516 31.25607422 -176.94140625 32.0234375 C-184.13740319 39.56300989 -188.77080972 50.3168328 -190.3515625 60.50390625 C-185.30125997 59.96779721 -181.3672019 58.24150442 -176.9765625 55.81640625 C-176.315354 55.45554932 -175.65414551 55.09469238 -174.97290039 54.72290039 C-165.92814789 49.70149948 -157.16794589 44.01939949 -153.4140625 33.94140625 C-152.33580383 30.15135929 -151.91089765 27.28565148 -153.3515625 23.50390625 C-161.63169896 17.2938039 -169.18503564 24.3631269 -175.3515625 30.50390625 Z " fill="#1A7AFB" transform="translate(712.3515625,438.49609375)"/>
<path d="M0 0 C2.80818091 2.25614535 3.85367932 3.56103796 5 7 C4.43442172 9.96885791 3.78346533 12.84736712 3.04296875 15.7734375 C2.81739792 16.69152191 2.59182709 17.60960632 2.35942078 18.55551147 C1.58213888 21.70603153 0.79173869 24.85308338 0 28 C-0.58528921 30.34273209 -1.17040692 32.68550704 -1.75537109 35.02832031 C-3.03970033 40.16119422 -4.32936858 45.2926939 -5.62255859 50.42333984 C-13.59110806 82.03193635 -13.59110806 82.03193635 -21.24575806 113.71746826 C-21.65663339 115.45275346 -22.07100916 117.18721461 -22.48934937 118.92071533 C-29.02623011 143.46862364 -29.02623011 143.46862364 -25.7734375 167.7109375 C-23.61319373 170.49926976 -22.19772773 170.97718407 -18.8125 171.8125 C-17.91144531 172.04582031 -17.01039063 172.27914062 -16.08203125 172.51953125 C-15.39496094 172.67808594 -14.70789063 172.83664062 -14 173 C-13.04983463 176.68739672 -12.88112338 177.72089837 -14.4375 181.375 C-19.84054252 189.83915194 -27.7858738 194.21444385 -37.3515625 196.58203125 C-46.69704075 198.05690761 -56.78721042 198.18297769 -65 193 C-70.62379465 188.48899876 -72.42775337 182.85444366 -74 176 C-77.46414834 176.59013146 -79.20367863 177.80426946 -81.75 180.1875 C-92.79758864 190.15279252 -103.73256685 196.58703054 -119.18359375 195.84765625 C-128.4815022 194.60398697 -136.01824261 190.95725793 -142.4375 184.0625 C-152.88066142 170.27752692 -153.45694471 151.77896805 -151.22607422 135.32763672 C-148.2760796 116.2942222 -140.88369463 98.47550246 -128 84 C-127.06027344 82.93652344 -127.06027344 82.93652344 -126.1015625 81.8515625 C-113.88121221 68.83314852 -97.41887736 62.34597404 -79.75 61.75 C-71.93363032 62.27109131 -65.86296169 64.25656635 -59 68 C-57.3155953 62.3613438 -55.98706533 56.6835052 -54.72265625 50.9375 C-54.28739101 48.9869163 -53.85183528 47.0363974 -53.41601562 45.0859375 C-52.73725195 42.038748 -52.06055082 38.99115205 -51.38891602 35.94238281 C-50.73547678 32.98101627 -50.0734633 30.02166966 -49.41015625 27.0625 C-49.21317642 26.15814209 -49.01619659 25.25378418 -48.81324768 24.32202148 C-46.06853556 12.15624732 -46.06853556 12.15624732 -41.7890625 7.6953125 C-38.44291718 5.66138103 -35.15706767 4.70687522 -31.375 3.875 C-30.66569336 3.71032227 -29.95638672 3.54564453 -29.22558594 3.37597656 C-27.15347623 2.90184181 -25.07774039 2.44870902 -23 2 C-21.98679687 1.77054687 -20.97359375 1.54109375 -19.9296875 1.3046875 C-13.50024162 -0.02618905 -6.51402304 -1.14213182 0 0 Z M-91.34765625 103.93359375 C-101.36351987 116.45934281 -107.57554876 130.99340609 -107.328125 147.1171875 C-106.82886144 151.50357447 -105.37617426 154.29596366 -103 158 C-99.92805092 159.53597454 -97.39755707 159.2265038 -94 159 C-85.69180221 156.17167735 -79.61461839 148.50285712 -75.43359375 141.05859375 C-70.61333423 130.77449782 -67.78715155 119.68984546 -65.125 108.6875 C-64.909646 107.79828857 -64.69429199 106.90907715 -64.47241211 105.99291992 C-63.53203666 101.93587156 -62.70584221 98.19607429 -63 94 C-74.70068214 93.17471678 -83.23829495 95.09916014 -91.34765625 103.93359375 Z " fill="#155FF6" transform="translate(868,369)"/>
<path d="M0 0 C2.12890625 1.78515625 2.12890625 1.78515625 2.6875 4.0625 C2.64753906 4.94035156 2.60757813 5.81820313 2.56640625 6.72265625 C2.52386719 7.686875 2.48132813 8.65109375 2.4375 9.64453125 C1.936586 14.74244084 1.11122426 19.75954714 0.12890625 24.78515625 C0.83273437 24.02332031 1.5365625 23.26148438 2.26171875 22.4765625 C14.14333182 9.92794729 27.33072768 0.81501291 44.83984375 -1.52734375 C48.08901598 -1.08377075 49.74402192 0.62780506 52.12890625 2.78515625 C50.44860094 11.42251511 48.40738764 19.95876929 46.19140625 28.47265625 C45.83054932 29.92502686 45.83054932 29.92502686 45.46240234 31.40673828 C45.09816162 32.77548096 45.09816162 32.77548096 44.7265625 34.171875 C44.51523682 34.98873779 44.30391113 35.80560059 44.08618164 36.6472168 C42.89026447 39.31812898 41.63630532 40.31564286 39.12890625 41.78515625 C35.87890625 42.12109375 35.87890625 42.12109375 32.12890625 42.16015625 C21.14067102 42.55053306 11.87566852 46.75673926 3.62890625 53.97265625 C-8.3390638 67.43662255 -10.57706468 83.97872181 -14.01928711 101.06787109 C-14.58848955 103.87891766 -15.1688539 106.68749621 -15.75 109.49609375 C-15.91883194 110.35447845 -16.08766388 111.21286316 -16.26161194 112.09725952 C-17.17022706 116.47575731 -18.02613028 120.20536039 -20.87109375 123.78515625 C-26.85407737 125.96556302 -32.61566674 126.09228897 -38.93359375 126.03515625 C-39.79275391 126.04289063 -40.65191406 126.050625 -41.53710938 126.05859375 C-48.13260206 126.03843946 -53.63317563 125.7798224 -58.74609375 121.22265625 C-62.01787696 116.76425942 -62.16402165 111.57099868 -61.59942627 106.20150757 C-61.10711864 103.27745573 -60.52561578 100.38502327 -59.91015625 97.484375 C-59.68510406 96.37253342 -59.46005188 95.26069183 -59.22817993 94.11515808 C-58.59454806 91.00697116 -57.94779469 87.9018825 -57.29389954 84.79790497 C-56.85912197 82.72816513 -56.42908558 80.6574896 -56.00036621 78.58648682 C-54.11542531 69.48445755 -52.19399937 60.39061289 -50.25 51.30102539 C-49.40174404 47.33329651 -48.56277081 43.36366051 -47.72569847 39.39355946 C-47.06994579 36.29120025 -46.40774484 33.19024317 -45.74376297 30.08963585 C-45.43124134 28.62502866 -45.12106187 27.15991945 -44.81339645 25.69428444 C-44.38550221 23.65900453 -43.94849079 21.62588051 -43.50927734 19.59301758 C-43.26454681 18.4434407 -43.01981628 17.29386383 -42.76766968 16.10945129 C-41.42220714 11.12078909 -40.23283377 6.89930717 -36.12109375 3.53515625 C-26.60874816 -1.1108736 -9.98376437 -4.22442275 0 0 Z " fill="#249AFD" transform="translate(378.87109375,437.21484375)"/>
<path d="M0 0 C0 0.66 0 1.32 0 2 C-0.61746094 2.15855469 -1.23492187 2.31710937 -1.87109375 2.48046875 C-12.81293455 5.4948876 -23.83976762 11.04601123 -30.2265625 20.890625 C-31.14902697 22.85734646 -31.14902697 22.85734646 -32 26 C-32.4125 27.11375 -32.825 28.2275 -33.25 29.375 C-34.17106638 33.82682083 -33.74573124 37.55584494 -33 42 C-29.5561266 43.16752526 -28.13407486 43.05233347 -24.6875 41.70703125 C-23.45289713 41.08621577 -22.22393482 40.45409151 -21 39.8125 C-8.29404738 33.50504786 4.2623755 30.95096136 18.2800293 29.58789062 C19.70274434 29.44750277 21.1249753 29.30210645 22.54663086 29.15136719 C31.01749615 28.25376587 39.00647126 27.93414681 47.52319336 28.71142578 C53.69654781 29.2238129 59.87116576 29.22456052 66.0625 29.25 C67.32126953 29.270625 68.58003906 29.29125 69.87695312 29.3125 C85.09199918 29.37533963 97.61079836 25.8028538 110 17 C107.81865816 22.21722998 103.84705716 24.39112219 99 27 C91.18780231 30.17089202 83.59555592 31.99909198 75.1640625 32.31640625 C74.10058594 32.35830078 73.03710938 32.40019531 71.94140625 32.44335938 C70.84699219 32.48267578 69.75257813 32.52199219 68.625 32.5625 C67.50738281 32.60568359 66.38976562 32.64886719 65.23828125 32.69335938 C62.49229801 32.79897411 59.74623119 32.9010797 57 33 C55.15100891 40.34647057 53.30391032 47.69282717 51.54278564 55.0609436 C50.90470893 57.72712501 50.25759051 60.39108049 49.60986328 63.05493164 C49.28640858 64.39419046 48.96674958 65.73437165 48.65087891 67.07543945 C43.08051932 90.67074986 33.37917545 110.58570876 13.25 125.02734375 C7.47457324 128.5328612 1.37977249 130.83661694 -5 133 C-5.71542969 133.25523437 -6.43085938 133.51046875 -7.16796875 133.7734375 C-18.2958117 137.16337641 -33.51037067 137.34135749 -44.3125 133.08984375 C-46 132 -46 132 -46.75 129.375 C-46.8325 128.59125 -46.915 127.8075 -47 127 C-41.25 122 -41.25 122 -39 122 C-39 121.34 -39 120.68 -39 120 C-37.9790625 119.01 -37.9790625 119.01 -36.9375 118 C-20.49558152 101.97491889 -15.34529035 77.01786678 -10.125 55.5625 C-9.81433594 54.28745605 -9.50367188 53.01241211 -9.18359375 51.69873047 C-8.89871094 50.50006348 -8.61382812 49.30139648 -8.3203125 48.06640625 C-7.93770264 46.4568103 -7.93770264 46.4568103 -7.54736328 44.81469727 C-6.87273989 41.8234966 -6.87273989 41.8234966 -7 38 C-13.20566299 38.66355734 -17.48913256 41.37273676 -22.78125 44.50390625 C-26.23083838 46.10729502 -28.24924535 46.44903401 -32 46 C-34.875 44.125 -34.875 44.125 -37 41 C-38.66033065 32.84272335 -35.77533551 25.53254523 -31.5625 18.65234375 C-24.58833421 8.87845275 -12.53376015 -0.53146686 0 0 Z " fill="#1464FA" transform="translate(207,463)"/>
<path d="M0 0 C0.47539565 8.09387723 -0.93699521 15.24447423 -2.88671875 23.07421875 C-3.34389651 24.97225702 -3.80107214 26.8702958 -4.2581377 28.76836109 C-4.89796358 31.41267789 -5.54826834 34.05437468 -6.19842529 36.69616699 C-8.84053901 47.45388597 -11.43251575 58.22426509 -14 69 C-14.39980072 70.67790619 -14.39980072 70.67790619 -14.80767822 72.38970947 C-15.53904913 75.49227412 -16.25170408 78.59845522 -16.95703125 81.70703125 C-17.16736496 82.59508957 -17.37769867 83.48314789 -17.59440613 84.39811707 C-19.17442498 91.51356257 -20.54425475 99.95818167 -18 107 C-15.68684675 108.14293555 -15.68684675 108.14293555 -12.9375 108.75 C-11.55884766 109.11351562 -11.55884766 109.11351562 -10.15234375 109.484375 C-9.44207031 109.65453125 -8.73179687 109.8246875 -8 110 C-7.14158268 113.43366929 -6.84569159 114.62965983 -8.25 118 C-12.71423715 124.03527531 -22.03948842 126.3528004 -29 128 C-38.11084517 128.91747845 -49.38439735 129.84092602 -57 124 C-61.76300789 119.89216568 -64.51898789 115.37906192 -65 109 C-64.81563257 99.03824794 -62.85862907 89.45282626 -60.76171875 79.76171875 C-60.43577598 78.22692945 -60.11049805 76.69199883 -59.7858429 75.15693665 C-59.10753722 71.95808266 -58.42381628 68.76045595 -57.7355957 65.5637207 C-56.86399932 61.51486445 -56.00216435 57.46401429 -55.14398479 53.41229534 C-54.47300414 50.24656426 -53.79871419 47.08154558 -53.12330055 43.91675758 C-52.8050949 42.42570051 -52.48740467 40.93453332 -52.17029381 39.44324303 C-50.5147718 31.6740779 -48.786415 23.92633257 -46.89770508 16.21020508 C-46.65775959 15.2119283 -46.65775959 15.2119283 -46.41296673 14.19348431 C-44.36866333 5.99144637 -44.36866333 5.99144637 -41.3984375 3.83984375 C-29.79108609 -1.33640756 -11.96361476 -5.48970257 0 0 Z " fill="#208FFC" transform="translate(483,438)"/>
<path d="M0 0 C3.89794095 3.29159458 6.53637247 6.28956213 7.40625 11.375 C7.7664704 21.4611713 3.63100902 29.1390942 -2.6875 36.8125 C-12.09655822 46.6121229 -24.4075427 51.88081233 -38 52.4375 C-42.88359443 52.17949878 -46.95059739 50.62538828 -50.8125 47.5625 C-54.7700191 42.35523803 -54.5291669 37.31640489 -54 31 C-52.15087333 20.55787293 -46.56816193 12.58436293 -38.5703125 5.79296875 C-27.91915427 -1.63694254 -12.31436619 -5.27758551 0 0 Z " fill="#31BAFE" transform="translate(502,371)"/>
<path d="M0 0 C-2.41042277 1.25341984 -4.65239405 2.21328267 -7.25 3.0625 C-15.61394684 6.69821993 -20.22671743 15.27348607 -23.640625 23.28515625 C-27.28018844 33.23120462 -29.48160101 43.5455084 -31.7265625 53.87890625 C-31.87793167 54.57520645 -32.02930084 55.27150665 -32.18525696 55.98890686 C-32.94003057 59.47107786 -33.68523035 62.95488095 -34.41381836 66.44262695 C-35.74959931 72.78531505 -37.19016579 79.09906315 -38.90234375 85.3515625 C-39.32567993 86.91511475 -39.32567993 86.91511475 -39.75756836 88.51025391 C-41 91 -41 91 -43.39672852 92.31396484 C-53.92297031 95.08792522 -70.37053426 96.58509013 -80 91 C-82.92865128 87.12282573 -83.44511341 83.98675442 -83.6875 79.1875 C-83.75324219 78.02605469 -83.81898438 76.86460937 -83.88671875 75.66796875 C-83.94279297 74.34732422 -83.94279297 74.34732422 -84 73 C-87.74170168 75.13425583 -91.01636716 77.55933055 -94.375 80.25 C-111.00116319 92.82200025 -130.815077 98.0766703 -151.5234375 95.57421875 C-163.27626538 93.42173454 -176.45941231 88.44664456 -183.828125 78.54296875 C-184.29734375 77.76566406 -184.7665625 76.98835937 -185.25 76.1875 C-186.62086682 73.85592836 -186.62086682 73.85592836 -188 72 C-188.66 72 -189.32 72 -190 72 C-190.103125 71.236875 -190.20625 70.47375 -190.3125 69.6875 C-190.874524 66.21108987 -190.874524 66.21108987 -191.734375 63.78515625 C-194.6390045 54.89315369 -194.27444638 46.23969472 -194 37 C-193.01 36.505 -193.01 36.505 -192 36 C-191.96036133 36.67466309 -191.92072266 37.34932617 -191.87988281 38.04443359 C-191.68717564 41.15596232 -191.46874344 44.26519741 -191.25 47.375 C-191.188125 48.43589844 -191.12625 49.49679687 -191.0625 50.58984375 C-190.17788359 62.6058833 -186.02502548 73.43955537 -177.05078125 81.8203125 C-175.09438449 83.35006871 -173.11281085 84.69635075 -171 86 C-170.38511719 86.40089844 -169.77023437 86.80179688 -169.13671875 87.21484375 C-163.40205771 90.55115794 -157.52807334 90.78239756 -151 91 C-151 91.66 -151 92.32 -151 93 C-129.93041723 93.24983695 -109.56876681 90.60391417 -93.1875 76 C-92.60355469 75.4225 -92.01960937 74.845 -91.41796875 74.25 C-90 73 -90 73 -88 73 C-87.505 71.515 -87.505 71.515 -87 70 C-86.34 70 -85.68 70 -85 70 C-84.505 68.515 -84.505 68.515 -84 67 C-82.35 67.66 -80.7 68.32 -79 69 C-79.165 69.763125 -79.33 70.52625 -79.5 71.3125 C-79.92669877 74.45940341 -80.16514611 77.45570735 -80.25 80.625 C-80.27578125 81.54539062 -80.3015625 82.46578125 -80.328125 83.4140625 C-79.92365596 86.60166374 -79.29152848 87.74971255 -77 90 C-73.87339495 90.57018422 -73.87339495 90.57018422 -70.28515625 90.42578125 C-69.63300644 90.42249313 -68.98085663 90.41920502 -68.3089447 90.41581726 C-66.2261216 90.40007734 -64.14490735 90.35603884 -62.0625 90.3125 C-60.66472668 90.30100702 -59.26693819 90.29122234 -57.86914062 90.28320312 C-50.2765544 90.57241722 -50.2765544 90.57241722 -43 89 C-40.29971282 82.95135671 -39.3480933 76.63020601 -38.26098633 70.13891602 C-29.34243855 17.64866485 -29.34243855 17.64866485 -12.94921875 3.19140625 C-8.5413099 0.1700629 -5.29112442 -0.55115879 0 0 Z " fill="#1849D5" transform="translate(671,469)"/>
<path d="M0 0 C0.66 0 1.32 0 2 0 C7.82365931 12.66012893 6.17869884 23.71412362 2.875 36.9375 C2.55626774 38.25630862 2.23907337 39.57548978 1.92333984 40.89501953 C1.27535095 43.60048066 0.62326535 46.3048845 -0.03320312 49.00830078 C-8.57954362 76.89091214 -8.57954362 76.89091214 -6 105 C-4.74306578 106.74450562 -4.74306578 106.74450562 -3.3125 108.3125 C-1 111 -1 111 -1.1328125 113.03515625 C-2.75060295 116.70069048 -6.45210005 117.59081654 -10 119 C-20.06578717 122.47096109 -32.26569605 122.59723836 -42 118 C-47.97084023 114.41059315 -51.09627855 109.63729911 -53 103 C-55.79349692 90.11138317 -51.94383389 77.00002658 -49.05078125 64.4453125 C-48.87452713 63.6799971 -48.69827301 62.9146817 -48.51667786 62.12617493 C-47.62017318 58.24692116 -46.71098285 54.37124117 -45.78149414 50.49975586 C-43.9273516 42.69238596 -42.36754094 35.04566685 -42 27 C-40 29 -40 29 -39.8828125 31.625 C-40.80126984 44.42414746 -43.88491184 56.59135008 -47 69 C-48.27723487 74.12470779 -49.13299985 78.68000618 -49 84 C-49.495 84.495 -49.495 84.495 -50 85 C-50.23701239 87.85877909 -50.42219182 90.69883297 -50.5625 93.5625 C-50.60568359 94.36880859 -50.64886719 95.17511719 -50.69335938 96.00585938 C-50.79975262 98.00368805 -50.90040888 100.0018207 -51 102 C-50.34 102 -49.68 102 -49 102 C-48.82984375 102.60328125 -48.6596875 103.2065625 -48.484375 103.828125 C-46.61826983 110.31640873 -46.61826983 110.31640873 -42 115 C-38.35278304 115.80765878 -38.35278304 115.80765878 -35 116 C-35 116.66 -35 117.32 -35 118 C-29.72 118.33 -24.44 118.66 -19 119 C-18.67 118.34 -18.34 117.68 -18 117 C-16.109375 116.40234375 -16.109375 116.40234375 -13.75 115.9375 C-12.94175781 115.77378906 -12.13351562 115.61007812 -11.30078125 115.44140625 C-10.16189453 115.22291016 -10.16189453 115.22291016 -9 115 C-7.4840625 114.690625 -7.4840625 114.690625 -5.9375 114.375 C-5.298125 114.25125 -4.65875 114.1275 -4 114 C-5.06764731 110.97499929 -6.25894376 108.61550776 -8.0625 105.9375 C-13.59454489 97.55020613 -11.61205438 85.12434959 -9.71972656 75.69750977 C-8.86875402 71.78420714 -7.95331223 67.88951392 -7 64 C-6.62488281 62.41445313 -6.62488281 62.41445313 -6.2421875 60.796875 C-5.15252632 56.31298186 -3.96244763 51.85677441 -2.7734375 47.3984375 C1.70594421 30.58839577 5.03919358 17.18724954 0 0 Z " fill="#153BCA" transform="translate(715,444)"/>
<path d="M0 0 C0.33 0 0.66 0 1 0 C0.47964612 7.4393226 -0.85225362 14.46615395 -2.6875 21.6875 C-3.08678711 23.26362061 -3.08678711 23.26362061 -3.49414062 24.87158203 C-9.46192322 47.72818937 -20.30064697 67.43608981 -41 80 C-45.84854595 82.42046122 -50.87410404 84.2618069 -56 86 C-56.71542969 86.25523437 -57.43085938 86.51046875 -58.16796875 86.7734375 C-69.2958117 90.16337641 -84.51037067 90.34135749 -95.3125 86.08984375 C-97 85 -97 85 -97.75 82.375 C-97.8325 81.59125 -97.915 80.8075 -98 80 C-92.25 75 -92.25 75 -90 75 C-90 74.34 -90 73.68 -90 73 C-88.9790625 72.01 -88.9790625 72.01 -87.9375 71 C-80.80585055 64.04915293 -76.57350161 55.48556712 -72.578125 46.515625 C-71.13313494 43.29658773 -69.60084877 40.14383553 -68 37 C-66.48300363 41.55098912 -68.49862189 44.58893793 -70.3125 48.875 C-70.67206787 49.72545898 -71.03163574 50.57591797 -71.40209961 51.45214844 C-76.20164726 62.29795925 -83.32359121 70.94497858 -92 79 C-92.804375 79.804375 -93.60875 80.60875 -94.4375 81.4375 C-94.953125 81.953125 -95.46875 82.46875 -96 83 C-76.8701017 87.95110109 -57.7222013 85.1963778 -40.36328125 76.03515625 C-37.37753522 74.22845046 -35.30258158 72.58298965 -33 70 C-31 68 -31 68 -29.0859375 67.125 C-18.07235854 61.18509225 -11.77232332 43.05894914 -8.36328125 31.91943359 C-5.25615942 21.36698876 -2.60582522 10.68533919 0 0 Z " fill="#154AD5" transform="translate(258,510)"/>
<path d="M0 0 C0.99 0.495 0.99 0.495 2 1 C1.46890625 1.67804688 0.9378125 2.35609375 0.390625 3.0546875 C-0.66898437 4.45074219 -0.66898437 4.45074219 -1.75 5.875 C-2.44609375 6.77992188 -3.1421875 7.68484375 -3.859375 8.6171875 C-9.49085573 16.91594228 -11.35120144 26.87267693 -13.5 36.5 C-13.80553512 37.83328688 -14.11193866 39.16637503 -14.41918945 40.49926758 C-15.74382491 46.27165736 -17.0274295 52.04992568 -18.19921875 57.85546875 C-18.37066406 58.68820312 -18.54210937 59.5209375 -18.71875 60.37890625 C-19.0213985 61.86945014 -19.31019063 63.36290586 -19.58203125 64.859375 C-20.17063878 67.762018 -20.7150291 69.68941374 -22.73828125 71.89453125 C-28.38784881 74.65589156 -34.78477619 74.18295253 -40.9375 74.1875 C-41.80568359 74.19974609 -42.67386719 74.21199219 -43.56835938 74.22460938 C-50.21943343 74.23969118 -55.71195821 74.03934159 -60.875 69.4375 C-64.25711577 64.80187762 -64.28461359 59.42439377 -63.63769531 53.91381836 C-63.05700009 50.50839816 -62.39175809 47.13196567 -61.6875 43.75 C-61.46126953 42.59242188 -61.23503906 41.43484375 -61.00195312 40.2421875 C-60.0078205 35.28011916 -59.00465415 30.66347546 -57 26 C-56.67 26 -56.34 26 -56 26 C-56 29.63 -56 33.26 -56 37 C-56.66 37 -57.32 37 -58 37 C-58.06058594 37.99902344 -58.12117188 38.99804688 -58.18359375 40.02734375 C-58.26738281 41.31769531 -58.35117187 42.60804688 -58.4375 43.9375 C-58.51871094 45.22527344 -58.59992188 46.51304687 -58.68359375 47.83984375 C-59 51 -59 51 -60 52 C-60.09968672 54.10221693 -60.12968203 56.20792604 -60.125 58.3125 C-60.12757813 59.46363281 -60.13015625 60.61476563 -60.1328125 61.80078125 C-60.02438878 64.41251737 -59.77059738 66.52307984 -59 69 C-54.05424649 70.40609632 -49.04721236 70.40155277 -43.9375 70.625 C-42.42833008 70.70234375 -42.42833008 70.70234375 -40.88867188 70.78125 C-39.92380859 70.82507813 -38.95894531 70.86890625 -37.96484375 70.9140625 C-37.0843335 70.9548291 -36.20382324 70.9955957 -35.29663086 71.03759766 C-32.83620221 71.11243229 -32.83620221 71.11243229 -30 70 C-27.8125 70.4375 -27.8125 70.4375 -26 71 C-26 70.34 -26 69.68 -26 69 C-25.34 68.67 -24.68 68.34 -24 68 C-23.48230883 65.91640002 -22.9801968 63.82779602 -22.55371094 61.72363281 C-21.97144779 58.85955537 -21.31201716 56.02228478 -20.6328125 53.1796875 C-20.38917969 52.15705811 -20.14554687 51.13442871 -19.89453125 50.08081055 C-18.84468998 45.7072491 -17.78496084 41.33614511 -16.71972656 36.96630859 C-16.11293005 34.46543421 -15.51942141 31.96195778 -14.9296875 29.45703125 C-12.14106785 18.1502331 -8.10530159 8.49126833 0 0 Z " fill="#1D57D7" transform="translate(381,489)"/>
<path d="M0 0 C0.33 0 0.66 0 1 0 C1.41163823 7.36832423 -0.47890853 14.08284292 -2.22265625 21.19921875 C-3.97628992 28.7448539 -5.70674515 37.46270734 -3 45 C-0.68684675 46.14293555 -0.68684675 46.14293555 2.0625 46.75 C2.98160156 46.99234375 3.90070313 47.2346875 4.84765625 47.484375 C5.55792969 47.65453125 6.26820313 47.8246875 7 48 C7.85841732 51.43366929 8.15430841 52.62965983 6.75 56 C2.28576285 62.03527531 -7.03948842 64.3528004 -14 66 C-23.11084517 66.91747845 -34.38439735 67.84092602 -42 62 C-46.7669228 57.88878929 -49.51002666 53.38030505 -50 47 C-49.97461844 37.67227645 -48.51201334 27.99036354 -46 19 C-45.34 18.67 -44.68 18.34 -44 18 C-44.14120714 19.93784265 -44.28812873 21.87526955 -44.4375 23.8125 C-44.51871094 24.89144531 -44.59992188 25.97039063 -44.68359375 27.08203125 C-45 30 -45 30 -46 33 C-46.22580761 36.14195165 -46.18514806 39.28824987 -46.1875 42.4375 C-46.19974609 43.29666016 -46.21199219 44.15582031 -46.22460938 45.04101562 C-46.22654297 45.87181641 -46.22847656 46.70261719 -46.23046875 47.55859375 C-46.23457764 48.31454834 -46.23868652 49.07050293 -46.24291992 49.84936523 C-45.74090009 54.2938805 -43.39127812 57.20718273 -40 60 C-38.68 60 -37.36 60 -36 60 C-36 60.66 -36 61.32 -36 62 C-25.28051267 65.57316244 -11.4960528 63.28334432 -1.5625 58.5 C1.07727295 57.14499917 2.89487605 56.10512395 5 54 C4.33202122 50.90120088 4.33202122 50.90120088 2.00390625 49.82421875 C1.19824219 49.44910156 0.39257812 49.07398438 -0.4375 48.6875 C-4.79747854 46.34833691 -4.79747854 46.34833691 -6.5625 43.3125 C-7.90173412 33.1725845 -5.92796054 24.1636616 -3.5 14.375 C-3.16172256 12.97551088 -2.82447515 11.57577236 -2.48828125 10.17578125 C-1.67069744 6.78089946 -0.83926756 3.38959503 0 0 Z " fill="#184ED5" transform="translate(468,500)"/>
<path d="M0 0 C-0.75023437 0.4846875 -1.50046875 0.969375 -2.2734375 1.46875 C-22.21528401 14.52890136 -39.8320904 30.15074956 -46 54 C-46.37125 55.258125 -46.7425 56.51625 -47.125 57.8125 C-48.14455698 62.54324438 -48.25261319 67.2416118 -48.3125 72.0625 C-48.33006348 72.81829346 -48.34762695 73.57408691 -48.36572266 74.3527832 C-48.35712764 82.2559051 -45.89378527 88.70799036 -41 95 C-36.14894292 99.53468379 -31.89240453 102.86004494 -25.125 103.1875 C-23.578125 103.0946875 -23.578125 103.0946875 -22 103 C-22.598125 102.46375 -23.19625 101.9275 -23.8125 101.375 C-26.26428353 98.7130636 -27.66913936 96.36217425 -29 93 C-28.57421875 90.8125 -28.57421875 90.8125 -28 89 C-27.69707031 89.53109375 -27.39414063 90.0621875 -27.08203125 90.609375 C-24.471405 95.01129249 -22.07141832 97.8333413 -18 101 C-17.1875 103.25 -17.1875 103.25 -17 105 C-19.59210035 106.70842978 -20.98810895 107.52923384 -24 108 C-31.71452531 106.19537096 -38.98714429 102.18512709 -44 96 C-51.30329697 83.82251139 -53.32836299 70.66535509 -50.1640625 56.71875 C-46.04992517 41.61582531 -38.06092276 28.04230168 -27 17 C-26.34 17 -25.68 17 -25 17 C-24.73807861 16.39551025 -24.47615723 15.79102051 -24.20629883 15.16821289 C-22.9165805 12.850061 -21.83468859 11.841729 -19.69921875 10.30859375 C-18.72758789 9.60379883 -18.72758789 9.60379883 -17.73632812 8.88476562 C-17.06021484 8.40716797 -16.38410156 7.92957031 -15.6875 7.4375 C-15.02298828 6.95603516 -14.35847656 6.47457031 -13.67382812 5.97851562 C-3.66221217 -1.22073739 -3.66221217 -1.22073739 0 0 Z " fill="#1E71E1" transform="translate(193,364)"/>
<path d="M0 0 C0.33 0 0.66 0 1 0 C0.4635263 6.68297998 -0.55754054 13.0836748 -2 19.625 C-6.47379852 39.56592146 -6.47379852 39.56592146 -1.375 58.5 C1.97675174 60.61689584 5.11608297 61.22321659 9 62 C10.27872373 65.51649025 10.05248332 66.8767783 8.5625 70.375 C3.15945748 78.83915194 -4.7858738 83.21444385 -14.3515625 85.58203125 C-23.69704075 87.05690761 -33.78721042 87.18297769 -42 82 C-47.54847219 77.54941699 -49.68355794 71.85224967 -51 65 C-51.1875 61.375 -51.1875 61.375 -51 59 C-50.34 59.33 -49.68 59.66 -49 60 C-48.46741314 61.8552751 -48.02335116 63.73634683 -47.625 65.625 C-45.91526441 72.84910318 -45.91526441 72.84910318 -42 79 C-33.04005164 84.30314965 -21.92771132 84.28672002 -12 82 C-12 81.34 -12 80.68 -12 80 C-11.071875 80.020625 -10.14375 80.04125 -9.1875 80.0625 C-5.97713989 80.15769604 -5.97713989 80.15769604 -3 79 C-3 78.34 -3 77.68 -3 77 C-2.2575 76.773125 -1.515 76.54625 -0.75 76.3125 C2.62773239 74.70040045 3.99663829 73.14813982 6 70 C6.79690838 66.81237891 6.79690838 66.81237891 7 64 C6.39671875 63.91363281 5.7934375 63.82726562 5.171875 63.73828125 C1.03734915 63.01140493 -1.39265708 62.57697577 -4.5 59.625 C-13.06220596 44.64113958 -5.75873741 20.66402941 -1.66430664 5.34643555 C-1.15586098 3.55052548 -0.59023808 1.77071425 0 0 Z " fill="#1437C5" transform="translate(845,480)"/>
<path d="M0 0 C0.66 0 1.32 0 2 0 C1.85485591 1.47923446 1.70883578 2.95838296 1.5625 4.4375 C1.47226562 5.35917969 1.38203125 6.28085937 1.2890625 7.23046875 C1.11677539 8.88116553 0.92951087 10.53057355 0.7109375 12.17578125 C-1.55038943 29.32956125 0.32266395 45.22808473 9.875 59.875 C13.55353096 63.55353096 17.10660312 65.86229841 22.4375 66.25 C23.283125 66.1675 24.12875 66.085 25 66 C25 66.66 25 67.32 25 68 C41.81492888 68.61268972 52.90300548 65.78942232 65.375 54.25 C66.40402809 53.27644555 67.43269761 52.30251189 68.4609375 51.328125 C71 49 71 49 73 48 C71.61999235 53.69253155 67.36438037 56.50849571 63 60 C62.34386719 60.54140625 61.68773437 61.0828125 61.01171875 61.640625 C51.84529707 68.91497968 41.62303527 72.41263604 29.81640625 71.84765625 C20.5184978 70.60398697 12.98175739 66.95725793 6.5625 60.0625 C-2.84966852 47.63843755 -4.56660146 30.56513836 -2.69238281 15.53271484 C-1.93365006 10.3281268 -1.0037988 5.16239382 0 0 Z " fill="#1537C3" transform="translate(719,493)"/>
<path d="M0 0 C0.33 0 0.66 0 1 0 C0.50239127 7.2197259 -0.76195602 13.96692115 -2.6875 20.9375 C-2.9544165 21.90389404 -3.22133301 22.87028809 -3.49633789 23.8659668 C-5.49565544 30.81692552 -7.85609813 37.01782587 -12 43 C-12.81791016 44.2065625 -12.81791016 44.2065625 -13.65234375 45.4375 C-17.79822813 51.15336781 -22.63782325 55.81891163 -29 59 C-33.97722669 59.37563975 -37.11357767 59.25619168 -41 56 C-45.40372852 50.64411397 -45.65984838 45.71793022 -45.44921875 38.890625 C-44.20100511 28.0800095 -40.26390799 16.93377041 -34 8 C-33.01 7.34 -32.02 6.68 -31 6 C-32.45964823 9.79229181 -34.15894283 13.41034825 -35.9375 17.0625 C-40.64586965 27.28507273 -44.41655193 38.98440242 -41.390625 50.2734375 C-39.9815517 53.81540423 -39.9815517 53.81540423 -37 56 C-30.8797294 56.47079005 -27.05652486 55.50079306 -22.28125 51.59375 C-9.69674422 39.89236743 -5.73398591 22.43624139 -2.20458984 6.21850586 C-1.08800594 1.08800594 -1.08800594 1.08800594 0 0 Z " fill="#1140D2" transform="translate(804,471)"/>
<path d="M0 0 C0.66 0.33 1.32 0.66 2 1 C1.54109375 1.46148437 1.0821875 1.92296875 0.609375 2.3984375 C-6.99942614 10.48678493 -10.40971832 19.75905179 -10.20703125 30.8515625 C-9.90265201 34.01021502 -9.14007366 35.65282244 -7 38 C0.03931197 42.59085563 7.83794746 41.0059761 15.74609375 39.46484375 C21.25298953 38.03012987 25.50379166 35.6505912 30.08984375 32.3046875 C32 31 32 31 35 30 C35 29.34 35 28.68 35 28 C35.66 28 36.32 28 37 28 C37.27585937 27.42765625 37.55171875 26.8553125 37.8359375 26.265625 C38.99467848 24.01035733 40.26875706 21.89143622 41.625 19.75 C42.29402344 18.69039063 42.29402344 18.69039063 42.9765625 17.609375 C43.31429687 17.07828125 43.65203125 16.5471875 44 16 C44.495 17.485 44.495 17.485 45 19 C38.95397271 30.1020618 29.12622702 38.09961004 17.1484375 41.90625 C8.03153358 44.3989731 0.51567978 45.59846708 -8 41 C-11.16813999 38.48733725 -12.80535578 35.58243221 -13.30078125 31.5546875 C-13.35368095 19.45828905 -9.88105094 10.34534443 -1.625 1.4375 C-1.08875 0.963125 -0.5525 0.48875 0 0 Z " fill="#279DF4" transform="translate(461,379)"/>
<path d="M0 0 C0.3403125 0.9590625 0.3403125 0.9590625 0.6875 1.9375 C1.81528375 4.21453195 1.81528375 4.21453195 4.22851562 4.63208008 C7.10320527 5.0137007 9.75884058 5.05183934 12.65625 4.94921875 C14.29980469 4.89169434 14.29980469 4.89169434 15.9765625 4.83300781 C17.13929688 4.78499023 18.30203125 4.73697266 19.5 4.6875 C20.69367188 4.64334961 21.88734375 4.59919922 23.1171875 4.55371094 C31.66981647 4.20039071 40.15281392 3.53175276 48.63867188 2.3972168 C51.0625 2.109375 51.0625 2.109375 55 2 C56.73266602 3.3737793 56.73266602 3.3737793 58 5 C58.79148674 12.03703661 55.60197968 20.28183017 51.625 25.96484375 C50.47167588 27.35735157 49.2435128 28.68740316 48 30 C48 25.95858414 49.75882509 23.75032422 51.80859375 20.3515625 C54.33972212 15.355696 54.09281492 10.4760803 54 5 C53.03449219 5.13277344 52.06898438 5.26554687 51.07421875 5.40234375 C39.86173724 6.81558083 28.66104635 7.34468723 17.375 7.6875 C16.27869766 7.72446487 16.27869766 7.72446487 15.1602478 7.76217651 C4.38000293 8.11590165 -6.24418854 7.79506823 -17 7 C-17 6.67 -17 6.34 -17 6 C-12.05 5.67 -7.1 5.34 -2 5 C-1.34 3.35 -0.68 1.7 0 0 Z " fill="#29A0F5" transform="translate(271,450)"/>
<path d="M0 0 C0 0.66 0 1.32 0 2 C-0.61746094 2.15855469 -1.23492187 2.31710937 -1.87109375 2.48046875 C-12.81293455 5.4948876 -23.83976762 11.04601123 -30.2265625 20.890625 C-31.14902697 22.85734646 -31.14902697 22.85734646 -32 26 C-32.4125 27.11375 -32.825 28.2275 -33.25 29.375 C-34.17106638 33.82682083 -33.74573124 37.55584494 -33 42 C-29.4838305 43.21015394 -28.05290949 43.02014471 -24.51171875 41.671875 C-23.23078833 41.04372003 -21.95619735 40.40250933 -20.6875 39.75 C-19.35378727 39.09707021 -18.01915857 38.44600793 -16.68359375 37.796875 C-15.73009033 37.32797852 -15.73009033 37.32797852 -14.75732422 36.84960938 C-6.06236535 32.64587822 -6.06236535 32.64587822 -2 34 C-4.31146736 36.68930337 -6.07933146 37.4962041 -9.5 38.3125 C-14.64820536 39.71245058 -18.83097792 42.00678432 -23.359375 44.79296875 C-26.4913715 46.2246062 -28.59091119 46.35024885 -32 46 C-34.875 44.125 -34.875 44.125 -37 41 C-38.66033065 32.84272335 -35.77533551 25.53254523 -31.5625 18.65234375 C-24.58833421 8.87845275 -12.53376015 -0.53146686 0 0 Z " fill="#1C72E5" transform="translate(207,463)"/>
<path d="M0 0 C2.01034147 0.00094833 4.02084099 0.03475846 6.03027344 0.09521484 C7.61989899 0.10794937 7.61989899 0.10794937 9.24163818 0.12094116 C12.62534387 0.15451944 16.00666353 0.22981192 19.38964844 0.30615234 C21.68388485 0.33624599 23.97815862 0.36362284 26.27246094 0.38818359 C31.8956704 0.45432496 37.51748899 0.55471826 43.13964844 0.68115234 C40.21956559 2.34582572 38.13802166 2.92855136 34.78588867 2.9206543 C33.93498154 2.92438553 33.0840744 2.92811676 32.2073822 2.93196106 C31.296866 2.927827 30.38634979 2.92369293 29.44824219 2.91943359 C27.51529239 2.93484493 25.58234954 2.95114794 23.64941406 2.96826172 C20.60539443 2.98475847 17.56188323 2.99361702 14.51782227 2.98657227 C11.577376 2.98396149 8.63848168 3.01199632 5.69824219 3.04443359 C4.78570175 3.03422684 3.87316132 3.02402008 2.93296814 3.01350403 C0.56539374 3.05033412 -1.55814881 3.12746455 -3.86035156 3.68115234 C-6.00631559 5.87758525 -6.00631559 5.87758525 -6.86035156 8.68115234 C-7.32054687 9.86322266 -7.78074219 11.04529297 -8.25488281 12.26318359 C-8.7362908 13.67037616 -9.20840322 15.08077149 -9.67285156 16.49365234 C-9.92711914 17.25613281 -10.18138672 18.01861328 -10.44335938 18.80419922 C-13.00586118 26.72122934 -14.97008466 34.78207571 -16.85571289 42.88354492 C-17.0892749 43.86863037 -17.32283691 44.85371582 -17.56347656 45.86865234 C-17.76618164 46.74908203 -17.96888672 47.62951172 -18.17773438 48.53662109 C-18.86035156 50.68115234 -18.86035156 50.68115234 -20.86035156 52.68115234 C-19.87540965 41.4528145 -17.86676012 30.24026468 -13.86035156 19.68115234 C-13.4775 18.61767578 -13.09464844 17.55419922 -12.70019531 16.45849609 C-6.78102129 0.4025103 -6.78102129 0.4025103 0 0 Z " fill="#28A2F7" transform="translate(292.8603515625,396.31884765625)"/>
<path d="M0 0 C1.51699637 4.55098912 -0.49862189 7.58893793 -2.3125 11.875 C-2.67206787 12.72545898 -3.03163574 13.57591797 -3.40209961 14.45214844 C-8.20164726 25.29795925 -15.32359121 33.94497858 -24 42 C-24.804375 42.804375 -25.60875 43.60875 -26.4375 44.4375 C-26.953125 44.953125 -27.46875 45.46875 -28 46 C-20.76721002 47.87094252 -13.89110763 48.40934408 -6.4375 48.625 C-5.33341797 48.66367187 -4.22933594 48.70234375 -3.09179688 48.7421875 C-0.39468875 48.83559384 2.3024277 48.92136476 5 49 C4.505 49.99 4.505 49.99 4 51 C1.54509274 51.37861754 -0.77830251 51.61497942 -3.25 51.75 C-3.96639648 51.79165283 -4.68279297 51.83330566 -5.42089844 51.8762207 C-13.08240799 52.21143296 -22.35216906 52.29339082 -29 48 C-29.75 45.375 -29.75 45.375 -30 43 C-24.25 38 -24.25 38 -22 38 C-22 37.34 -22 36.68 -22 36 C-21.319375 35.34 -20.63875 34.68 -19.9375 34 C-12.80585055 27.04915293 -8.57350161 18.48556712 -4.578125 9.515625 C-3.13313494 6.29658773 -1.60084877 3.14383553 0 0 Z " fill="#1643CC" transform="translate(190,547)"/>
<path d="M0 0 C0.66 0.33 1.32 0.66 2 1 C1.46890625 1.67804688 0.9378125 2.35609375 0.390625 3.0546875 C-0.66898437 4.45074219 -0.66898437 4.45074219 -1.75 5.875 C-2.44609375 6.77992188 -3.1421875 7.68484375 -3.859375 8.6171875 C-9.49085573 16.91594228 -11.35120144 26.87267693 -13.5 36.5 C-13.80553512 37.83328688 -14.11193866 39.16637503 -14.41918945 40.49926758 C-15.74382491 46.27165736 -17.0274295 52.04992568 -18.19921875 57.85546875 C-18.37066406 58.68820312 -18.54210937 59.5209375 -18.71875 60.37890625 C-19.0213985 61.86945014 -19.31019063 63.36290586 -19.58203125 64.859375 C-20.1880741 67.84799805 -20.74303097 69.7251029 -22.84765625 71.9765625 C-26.46376396 73.69601843 -29.13302064 72.70894622 -33 72 C-32.505 71.01 -32.505 71.01 -32 70 C-30.02 70.33 -28.04 70.66 -26 71 C-26 70.34 -26 69.68 -26 69 C-25.01 68.505 -25.01 68.505 -24 68 C-23.48230883 65.91640002 -22.9801968 63.82779602 -22.55371094 61.72363281 C-21.97144779 58.85955537 -21.31201716 56.02228478 -20.6328125 53.1796875 C-20.38917969 52.15705811 -20.14554687 51.13442871 -19.89453125 50.08081055 C-18.84468998 45.7072491 -17.78496084 41.33614511 -16.71972656 36.96630859 C-16.11293005 34.46543421 -15.51942141 31.96195778 -14.9296875 29.45703125 C-12.14106785 18.1502331 -8.10530159 8.49126833 0 0 Z " fill="#1961E2" transform="translate(381,489)"/>
<path d="M0 0 C0 0.99 0 1.98 0 3 C-0.8818396 3.14248169 -0.8818396 3.14248169 -1.78149414 3.2878418 C-19.54800326 6.20705856 -36.59006136 9.379552 -51.20703125 20.7109375 C-53 22 -53 22 -55 22 C-55.26941406 22.58265625 -55.53882813 23.1653125 -55.81640625 23.765625 C-57.00315036 26.00594721 -58.34232523 27.78545906 -59.9375 29.75 C-66.16163522 38.03370308 -66.89481847 47.01435979 -68 57 C-68.33 57 -68.66 57 -69 57 C-69.60981067 44.2956111 -68.37181103 35.17666737 -60.02734375 25.15625 C-44.16493692 8.28525082 -21.9129346 3.67205852 0 0 Z " fill="#1C84EE" transform="translate(232,395)"/>
<path d="M0 0 C0.66 0.33 1.32 0.66 2 1 C1.401875 2.175625 0.80375 3.35125 0.1875 4.5625 C-2.23680781 9.9574385 -3.20224955 15.44798647 -4.19140625 21.25390625 C-5 25 -5 25 -6.43359375 28.59765625 C-9.18671386 35.58686755 -9.91196449 43.24056115 -11.10546875 50.6171875 C-11.30785156 51.7928125 -11.51023438 52.9684375 -11.71875 54.1796875 C-11.89341797 55.24944824 -12.06808594 56.31920898 -12.24804688 57.42138672 C-13 60 -13 60 -16 62 C-18.33199388 62.07905064 -20.66832622 62.08798769 -23 62 C-20.64046906 59.64046906 -19.22104383 59.50858587 -16 59 C-15.85111328 57.46472656 -15.85111328 57.46472656 -15.69921875 55.8984375 C-14.87928151 49.38186823 -13.3091471 43.01281972 -11.8125 36.625 C-11.58114853 35.63154068 -11.58114853 35.63154068 -11.34512329 34.61801147 C-4.99474988 7.49212482 -4.99474988 7.49212482 0 0 Z " fill="#1C85F0" transform="translate(231,401)"/>
<path d="M0 0 C-0.75023437 0.4846875 -1.50046875 0.969375 -2.2734375 1.46875 C-26.31990732 17.21706777 -41.93259435 34.53483096 -48 63 C-50.17555718 59.73666423 -50.28959206 59.47382869 -49.625 55.875 C-46.97516688 44.23282999 -40.9055597 32.86829765 -33 24 C-32.43925781 23.31035156 -31.87851563 22.62070312 -31.30078125 21.91015625 C-29.92335539 20.2258946 -28.468684 18.60530577 -27 17 C-26.34 17 -25.68 17 -25 17 C-24.73807861 16.39551025 -24.47615723 15.79102051 -24.20629883 15.16821289 C-22.9165805 12.850061 -21.83468859 11.841729 -19.69921875 10.30859375 C-18.72758789 9.60379883 -18.72758789 9.60379883 -17.73632812 8.88476562 C-17.06021484 8.40716797 -16.38410156 7.92957031 -15.6875 7.4375 C-15.02298828 6.95603516 -14.35847656 6.47457031 -13.67382812 5.97851562 C-3.66221217 -1.22073739 -3.66221217 -1.22073739 0 0 Z " fill="#1E81EC" transform="translate(193,364)"/>
<path d="M0 0 C0.495 1.485 0.495 1.485 1 3 C-0.0390625 5.05078125 -0.0390625 5.05078125 -1.625 7.3125 C-2.38683594 8.42044922 -2.38683594 8.42044922 -3.1640625 9.55078125 C-14.62962234 24.84632598 -31.09092727 33.22186686 -49.3125 37.9375 C-50.12412598 38.14930908 -50.93575195 38.36111816 -51.77197266 38.5793457 C-57.57699833 39.96309497 -63.04540836 40.23377577 -69 40 C-66.0793091 38.39081084 -63.48704539 37.57804918 -60.2109375 36.9921875 C-42.65824838 33.64990084 -26.82884331 28.79518989 -13 17 C-12.33742188 16.43667969 -11.67484375 15.87335938 -10.9921875 15.29296875 C-6.22002603 10.88233467 -3.11131589 5.66419047 0 0 Z " fill="#1763E5" transform="translate(590,478)"/>
<path d="M0 0 C0.33 0 0.66 0 1 0 C0.4635263 6.68297998 -0.55754054 13.0836748 -2 19.625 C-6.47379852 39.56592146 -6.47379852 39.56592146 -1.375 58.5 C1.97675174 60.61689584 5.11608297 61.22321659 9 62 C9.625 64.3125 9.625 64.3125 10 67 C9.34 67.99 8.68 68.98 8 70 C7 68 7 68 7 64 C6.39671875 63.91363281 5.7934375 63.82726562 5.171875 63.73828125 C1.03734915 63.01140493 -1.39265708 62.57697577 -4.5 59.625 C-13.06220596 44.64113958 -5.75873741 20.66402941 -1.66430664 5.34643555 C-1.15586098 3.55052548 -0.59023808 1.77071425 0 0 Z " fill="#153FCD" transform="translate(845,480)"/>
<path d="M0 0 C-2.41042277 1.25341984 -4.65239405 2.21328267 -7.25 3.0625 C-15.59965803 6.69200874 -20.19414756 15.24005043 -23.62890625 23.2265625 C-26.4376366 30.60418732 -28.1817032 38.33272168 -30 46 C-30.19899902 46.82870605 -30.39799805 47.65741211 -30.60302734 48.51123047 C-31.76043821 53.33519763 -32.89173878 58.16451388 -34 63 C-34.66 62.34 -35.32 61.68 -36 61 C-34.62195951 41.33642231 -27.91671175 18.34026384 -14 4 C-9.3835482 0.6902377 -5.74456653 -0.46894421 0 0 Z " fill="#1558DE" transform="translate(671,469)"/>
<path d="M0 0 C2.08984375 1.83984375 2.08984375 1.83984375 2.578125 4.5390625 C2.49111328 6.01826172 2.49111328 6.01826172 2.40234375 7.52734375 C2.35722656 8.52121094 2.31210937 9.51507813 2.265625 10.5390625 C2.17861328 11.67794922 2.17861328 11.67794922 2.08984375 12.83984375 C-0.91632894 9.83367106 -0.50600941 7.01602777 -0.91015625 2.83984375 C-9.25976303 0.05664149 -20.53698529 1.52794526 -28.54296875 4.97265625 C-30.91015625 5.83984375 -30.91015625 5.83984375 -33.91015625 4.83984375 C-34.24015625 4.17984375 -34.57015625 3.51984375 -34.91015625 2.83984375 C-10.48939331 -4.1816776 -10.48939331 -4.1816776 0 0 Z M-35.91015625 5.83984375 C-35.25015625 5.83984375 -34.59015625 5.83984375 -33.91015625 5.83984375 C-34.24015625 7.48984375 -34.57015625 9.13984375 -34.91015625 10.83984375 C-35.90015625 10.83984375 -36.89015625 10.83984375 -37.91015625 10.83984375 C-38.24015625 11.82984375 -38.57015625 12.81984375 -38.91015625 13.83984375 C-39.24015625 13.17984375 -39.57015625 12.51984375 -39.91015625 11.83984375 C-37.59436678 7.52405428 -37.59436678 7.52405428 -35.91015625 5.83984375 Z " fill="#2DACF9" transform="translate(378.91015625,437.16015625)"/>
<path d="M0 0 C1.265625 1.8828125 1.265625 1.8828125 0.97265625 5.09765625 C0.67746094 6.32613281 0.38226563 7.55460937 0.078125 8.8203125 C-0.20417969 10.04621094 -0.48648437 11.27210938 -0.77734375 12.53515625 C-1.55381449 15.25121921 -2.35333569 17.44468137 -3.734375 19.8828125 C-5.45909903 23.11667005 -6.62324244 26.39068158 -7.734375 29.8828125 C-9.08954268 25.81730945 -7.85885036 22.76087441 -6.796875 18.7578125 C-5.25181151 12.64031864 -4.27276399 7.22996387 -4.734375 0.8828125 C-8.034375 1.5428125 -11.334375 2.2028125 -14.734375 2.8828125 C-15.064375 2.2228125 -15.394375 1.5628125 -15.734375 0.8828125 C-16.394375 0.5528125 -17.054375 0.2228125 -17.734375 -0.1171875 C-4.93393154 -3.17816311 -4.93393154 -3.17816311 0 0 Z M-15.734375 2.8828125 C-18.06651648 4.08909258 -20.23079639 5.0482863 -22.734375 5.8828125 C-22.734375 5.2228125 -22.734375 4.5628125 -22.734375 3.8828125 C-20.27158699 2.6514185 -18.4548695 2.81122054 -15.734375 2.8828125 Z " fill="#31B9FC" transform="translate(429.734375,438.1171875)"/>
<path d="M0 0 C0.33 0 0.66 0 1 0 C0.27847234 13.22800706 -3.66113391 28.46800585 -13.078125 38.1328125 C-17.88004281 42.3146151 -23.10065591 45.27261012 -28.8125 48 C-29.44663818 48.30317139 -30.08077637 48.60634277 -30.73413086 48.91870117 C-34.28712069 50.51705371 -37.10012157 51.35656031 -41 51 C-39.49051919 47.98103837 -37.26703222 47.89557699 -34.125 46.8125 C-23.57700652 42.86423899 -14.0656707 37.68890076 -8.671875 27.48828125 C-5.29816146 20.0396908 -3.50941159 12.34806912 -1.796875 4.39453125 C-1 1 -1 1 0 0 Z " fill="#155FE2" transform="translate(603,481)"/>
<path d="M0 0 C1.09441406 -0.01417969 2.18882812 -0.02835937 3.31640625 -0.04296875 C6.43689486 0.18745531 8.6241095 0.86201062 11.4375 2.1875 C9.84339849 10.66676336 8.15997481 18.98145891 5.4375 27.1875 C4.15781196 23.34843589 4.93679747 21.29043189 5.875 17.375 C6.95230824 12.8676969 7.72215648 8.83226067 7.4375 4.1875 C5.85352341 2.60352341 4.25724403 3.01730871 2.0625 3 C-4.31899445 3.05501288 -10.473792 4.14618111 -16.6484375 5.71875 C-19.58552723 6.43803728 -22.56833533 6.78443937 -25.5625 7.1875 C-25.5625 6.1975 -25.5625 5.2075 -25.5625 4.1875 C-23.52138458 3.70599058 -21.47958068 3.22739917 -19.4375 2.75 C-18.30054688 2.48316406 -17.16359375 2.21632813 -15.9921875 1.94140625 C-10.59734547 0.75552412 -5.53164057 0.03265431 0 0 Z " fill="#2BADFA" transform="translate(471.5625,435.8125)"/>
<path d="M0 0 C0.66 0 1.32 0 2 0 C7.69219118 12.37432865 6.28937179 23.39009966 3.11914062 36.35205078 C2.62147061 38.38944887 2.14153951 40.43044117 1.6640625 42.47265625 C-0.90680872 53.27533396 -0.90680872 53.27533396 -3 57 C-4.70274852 51.91239383 -3.11980911 47.76249842 -1.6875 42.8125 C-1.21699323 41.10074233 -0.74822293 39.38850634 -0.28125 37.67578125 C-0.05695312 36.86189941 0.16734375 36.04801758 0.3984375 35.20947266 C3.79074462 22.74990307 3.64818819 12.44292759 0 0 Z " fill="#1864E5" transform="translate(715,444)"/>
<path d="M0 0 C2 2 2 2 2.1171875 4.625 C1.19873016 17.42414746 -1.88491184 29.59135008 -5 42 C-6.26806287 47.08790658 -7.27135952 51.7084894 -7 57 C-7.99 57.495 -7.99 57.495 -9 58 C-10.22856301 52.1352949 -9.59175348 47.7267828 -8.1640625 41.953125 C-7.96525482 41.10127625 -7.76644714 40.24942749 -7.56161499 39.37176514 C-6.9277854 36.66158653 -6.27776119 33.95567581 -5.625 31.25 C-1.75257759 15.79576631 -1.75257759 15.79576631 0 0 Z " fill="#1353DD" transform="translate(673,471)"/>
<path d="M0 0 C1.43583001 -0.10836453 2.8740202 -0.18576167 4.3125 -0.25 C5.11300781 -0.29640625 5.91351563 -0.3428125 6.73828125 -0.390625 C9 0 9 0 10.73828125 1.73046875 C13.99763817 7.59327485 13.26838871 13.85929501 11.5625 20.125 C11.05891878 21.75542888 10.54422945 23.38268535 10 25 C8.68 25 7.36 25 6 25 C6.33 24.113125 6.66 23.22625 7 22.3125 C8.81871901 16.03082512 9.06775095 8.20325284 7 2 C5.02 2.33 3.04 2.66 1 3 C0.67 2.01 0.34 1.02 0 0 Z " fill="#40CDFC" transform="translate(385,339)"/>
<path d="M0 0 C0.66 0 1.32 0 2 0 C1.85485591 1.47923446 1.70883578 2.95838296 1.5625 4.4375 C1.47226562 5.35917969 1.38203125 6.28085937 1.2890625 7.23046875 C1.11677539 8.88116553 0.92951087 10.53057355 0.7109375 12.17578125 C-0.42567488 20.79779805 -0.54310685 29.628259 0.625 38.25 C0.74875 39.4875 0.8725 40.725 1 42 C0.34 42.66 -0.32 43.32 -1 44 C-4.98588286 29.19529222 -2.86917703 14.75576756 0 0 Z " fill="#1441D1" transform="translate(719,493)"/>
<path d="M0 0 C1.02222656 -0.03738281 2.04445313 -0.07476562 3.09765625 -0.11328125 C6.65809535 0.42053974 7.75178722 1.51095129 9.9375 4.3125 C11.04767502 7.64302505 10.81004667 9.05662218 10.125 12.4375 C9.95355469 13.32695312 9.78210938 14.21640625 9.60546875 15.1328125 C9.38503906 15.85210937 9.16460938 16.57140625 8.9375 17.3125 C8.2775 17.6425 7.6175 17.9725 6.9375 18.3125 C6.16500855 12.90505982 5.83997539 7.77387814 5.9375 2.3125 C4.49958484 2.45418137 3.0621763 2.60101043 1.625 2.75 C0.82449219 2.83121094 0.02398438 2.91242188 -0.80078125 2.99609375 C-3.22337179 3.26515693 -3.22337179 3.26515693 -6.0625 4.3125 C-8.75 3.375 -8.75 3.375 -11.0625 2.3125 C-11.0625 1.9825 -11.0625 1.6525 -11.0625 1.3125 C-7.34675514 0.47081194 -3.80861302 0.09148375 0 0 Z " fill="#1F79EC" transform="translate(862.0625,368.6875)"/>
<path d="M0 0 C0.33 0 0.66 0 1 0 C1.23964118 5.7591187 0.3484223 10.83550629 -0.9375 16.4375 C-2.25886037 22.28790474 -3.34930635 28.0341666 -4 34 C-4.33 34 -4.66 34 -5 34 C-5.33 37.63 -5.66 41.26 -6 45 C-6.33 45 -6.66 45 -7 45 C-7.77432208 29.40601358 -5.01271269 14.7723124 0 0 Z " fill="#1247DD" transform="translate(711,498)"/>
<path d="M0 0 C4 4 4 4 5.8125 6.0625 C12.17955199 11.7018889 19.3258101 11.51900792 27.4375 11.6875 C28.55060547 11.72166016 29.66371094 11.75582031 30.81054688 11.79101562 C33.54026383 11.87302429 36.2696786 11.94232837 39 12 C34.70212617 14.86524922 30.93190649 14.36803456 25.875 14.375 C24.50601563 14.41173828 24.50601563 14.41173828 23.109375 14.44921875 C15.68976544 14.48092648 9.60450459 12.98769097 3.80859375 8.18359375 C3.35613281 7.60738281 2.90367187 7.03117188 2.4375 6.4375 C1.96183594 5.85871094 1.48617187 5.27992188 0.99609375 4.68359375 C0 3 0 3 0 0 Z " fill="#1658E0" transform="translate(522,520)"/>
<path d="M0 0 C-0.33 0.66 -0.66 1.32 -1 2 C-3.328125 2.6328125 -3.328125 2.6328125 -6.25 3.125 C-7.20390625 3.29257812 -8.1578125 3.46015625 -9.140625 3.6328125 C-11.80099245 3.97444439 -14.32205635 4.06841462 -17 4 C-17.2475 5.11375 -17.495 6.2275 -17.75 7.375 C-19 11 -19 11 -21.125 12.4375 C-21.74375 12.623125 -22.3625 12.80875 -23 13 C-23.8125 10.8125 -23.8125 10.8125 -24 8 C-18.70144807 0.2414061 -8.7565706 -1.98261976 0 0 Z " fill="#218EF4" transform="translate(635,437)"/>
<path d="M0 0 C16.17 0 32.34 0 49 0 C49 0.33 49 0.66 49 1 C48.06027344 1.09087891 48.06027344 1.09087891 47.1015625 1.18359375 C46.28429687 1.26738281 45.46703125 1.35117187 44.625 1.4375 C43.81289063 1.51871094 43.00078125 1.59992188 42.1640625 1.68359375 C39.95727195 1.89090114 39.95727195 1.89090114 38 3 C25.3236018 3.79807485 12.59940358 2.23481709 0 1 C0 0.67 0 0.34 0 0 Z " fill="#37BCFC" transform="translate(258,344)"/>
<path d="M0 0 C0.53109375 0.14308594 1.0621875 0.28617187 1.609375 0.43359375 C4.47311231 1.1120936 7.34547652 1.58893639 10.25 2.0625 C11.32765625 2.23910156 12.4053125 2.41570312 13.515625 2.59765625 C14.74539063 2.79681641 14.74539063 2.79681641 16 3 C16 3.33 16 3.66 16 4 C7.20808719 4.67909947 -1.55652522 5.12000952 -10.375 5.1875 C-11.20104736 5.20039063 -12.02709473 5.21328125 -12.87817383 5.2265625 C-14.92017669 5.22998187 -16.96176118 5.12397535 -19 5 C-19.66 4.34 -20.32 3.68 -21 3 C-18.26750659 2.24722485 -15.71899317 1.83358297 -12.890625 1.68359375 C-12.13652344 1.64169922 -11.38242187 1.59980469 -10.60546875 1.55664062 C-9.82816406 1.51732422 -9.05085938 1.47800781 -8.25 1.4375 C-7.45722656 1.39431641 -6.66445313 1.35113281 -5.84765625 1.30664062 C-3.89862185 1.20097009 -1.94933252 1.10002034 0 1 C0 0.67 0 0.34 0 0 Z " fill="#3DC7FD" transform="translate(345,344)"/>
<path d="M0 0 C0.33 0 0.66 0 1 0 C1.03738281 0.96421875 1.07476563 1.9284375 1.11328125 2.921875 C1.17902344 4.18515625 1.24476563 5.4484375 1.3125 6.75 C1.37050781 8.00296875 1.42851563 9.2559375 1.48828125 10.546875 C2.01653977 14.11161185 2.30942285 15.63642263 5 18 C10.092662 19.41634825 15.60765307 19.32055108 20.875 19.5625 C22.19371094 19.62727539 22.19371094 19.62727539 23.5390625 19.69335938 C25.69255797 19.79869339 27.84626064 19.89977649 30 20 C26.23019846 22.51320103 23.18178549 22.34379928 18.8125 22.3125 C18.04671631 22.30903564 17.28093262 22.30557129 16.49194336 22.30200195 C11.06154144 22.19715899 6.82822748 21.66045188 2 19 C-0.52775351 15.20836973 -0.22443035 12.19125969 -0.125 7.8125 C-0.11597656 7.06291016 -0.10695313 6.31332031 -0.09765625 5.54101562 C-0.07412578 3.69387346 -0.03825561 1.84689588 0 0 Z " fill="#1E47C8" transform="translate(589,541)"/>
<path d="M0 0 C0.33 0 0.66 0 1 0 C0.45505161 6.75628453 -0.56495254 13.25509752 -2 19.875 C-3.54232312 27.24021146 -4.6936431 34.46362036 -5 42 C-5.33 42 -5.66 42 -6 42 C-7.28742086 32.48094776 -6.52868835 24.63721243 -4.125 15.375 C-3.84269531 14.21871094 -3.56039062 13.06242187 -3.26953125 11.87109375 C-2.28452884 7.87039677 -1.3032045 3.90961349 0 0 Z " fill="#1348D4" transform="translate(845,480)"/>
<path d="M0 0 C2.22013951 2.22013951 2.71598135 3.6952805 3.75 6.625 C7.07758568 15.10300321 11.67267039 21.05211053 20 25 C22.33501012 25.84307549 24.5732719 26.44387481 27 27 C27 27.33 27 27.66 27 28 C18.62051363 27.96120608 14.20340773 25.06750078 8.30859375 19.36328125 C3.76875265 14.48209871 0.29954848 8.6694689 -0.25 1.9375 C-0.1675 1.298125 -0.085 0.65875 0 0 Z " fill="#1333BD" transform="translate(719,535)"/>
<path d="M0 0 C0.33 0 0.66 0 1 0 C0.85879286 1.93784265 0.71187127 3.87526955 0.5625 5.8125 C0.48128906 6.89144531 0.40007812 7.97039063 0.31640625 9.08203125 C0 12 0 12 -1 15 C-1.22746428 18.64303909 -1.39408109 22.28005361 -1.51757812 25.92773438 C-1.78544586 31.78544586 -1.78544586 31.78544586 -4 34 C-5.13231155 26.054397 -4.7271066 19.21577337 -3.125 11.375 C-2.93808594 10.38371094 -2.75117188 9.39242187 -2.55859375 8.37109375 C-1.16477997 1.16477997 -1.16477997 1.16477997 0 0 Z " fill="#1B62E4" transform="translate(423,518)"/>
<path d="M0 0 C0.33 0 0.66 0 1 0 C1.35020862 6.41151164 0.02167825 12.15238862 -1.4375 18.375 C-3.03702963 25.25700984 -4.36572198 31.95732683 -5 39 C-5.33 39 -5.66 39 -6 39 C-7.75143891 30.35765389 -5.67838225 22.80903413 -3.5625 14.4375 C-3.21933086 13.03353784 -2.87752246 11.62924233 -2.53710938 10.22460938 C-1.70706306 6.81241956 -0.85868036 3.40511177 0 0 Z " fill="#1A6EE9" transform="translate(468,500)"/>
<path d="M0 0 C0.3403125 0.9590625 0.3403125 0.9590625 0.6875 1.9375 C1.79607742 4.17739188 1.79607742 4.17739188 4 4.59375 C8.09675192 5.14851849 12.18502712 5.36378189 16.3125 5.5625 C17.14845703 5.60568359 17.98441406 5.64886719 18.84570312 5.69335938 C20.89696935 5.79885307 22.9484648 5.89987315 25 6 C25 6.33 25 6.66 25 7 C10.91873381 7.74862428 -2.94061049 8.25702932 -17 7 C-17 6.67 -17 6.34 -17 6 C-12.05 5.67 -7.1 5.34 -2 5 C-1.34 3.35 -0.68 1.7 0 0 Z " fill="#1A89F2" transform="translate(271,450)"/>
<path d="M0 0 C-2.53201536 2.53201536 -5.10710471 3.46225809 -8.375 4.9375 C-15.22754661 8.17114576 -20.31122367 12.44954583 -25.671875 17.7421875 C-28 20 -28 20 -30 21 C-27.09882445 12.4296906 -19.24224743 7.88294506 -11.75 3.5 C-11.15993164 3.1496167 -10.56986328 2.7992334 -9.96191406 2.43823242 C-6.5020031 0.49655543 -3.97249803 -0.41815769 0 0 Z " fill="#1875EB" transform="translate(683,436)"/>
<path d="M0 0 C0.33 0 0.66 0 1 0 C1 6.93 1 13.86 1 21 C1.66 21 2.32 21 3 21 C3.33 23.31 3.66 25.62 4 28 C3.01 28 2.02 28 1 28 C-2.79694709 18.88732698 -2.51022901 9.3770538 0 0 Z " fill="#1544D7" transform="translate(663,525)"/>
<path d="M0 0 C0.66 0.33 1.32 0.66 2 1 C1.20335937 2.01707031 1.20335937 2.01707031 0.390625 3.0546875 C-7.06091065 12.87222169 -10.29282876 22.06383589 -13 34 C-15 31 -15 31 -14.75 28.50390625 C-11.96806586 17.59350829 -7.82476479 8.19737264 0 0 Z " fill="#1D78EA" transform="translate(381,489)"/>
<path d="M0 0 C0 0.66 0 1.32 0 2 C-0.61746094 2.15855469 -1.23492187 2.31710937 -1.87109375 2.48046875 C-12.01381761 5.27473514 -19.3752202 9.79073954 -27 17 C-27.66 16.34 -28.32 15.68 -29 15 C-11.45565138 -0.3096122 -11.45565138 -0.3096122 0 0 Z " fill="#1D7FED" transform="translate(207,463)"/>
<path d="M0 0 C0.99 0.66 1.98 1.32 3 2 C2.360625 2.350625 1.72125 2.70125 1.0625 3.0625 C-1.613465 4.75545745 -4.01901857 6.54089446 -6.5 8.5 C-9.55805497 10.91479132 -12.57374849 13.12108788 -16 15 C-16.66 14.34 -17.32 13.68 -18 13 C-16.13114096 11.38818468 -14.25546823 9.78567572 -12.375 8.1875 C-11.85292969 7.73568359 -11.33085937 7.28386719 -10.79296875 6.81835938 C-7.39786587 3.94719212 -4.08586954 1.84661672 0 0 Z " fill="#2399F6" transform="translate(519,443)"/>
<path d="M0 0 C-2 2 -2 2 -5.88671875 2.16015625 C-7.48714989 2.13750235 -9.08745983 2.10450583 -10.6875 2.0625 C-17.643449 1.90943511 -24.23850347 2.10678097 -31 4 C-31 3.34 -31 2.68 -31 2 C-31.66 1.67 -32.32 1.34 -33 1 C-21.7443439 -0.84034085 -11.29744654 -1.70527495 0 0 Z " fill="#2AA1F6" transform="translate(570,435)"/>
<path d="M0 0 C-0.75023437 0.4846875 -1.50046875 0.969375 -2.2734375 1.46875 C-10.73433949 7.00989488 -18.91837983 12.72524474 -26 20 C-26.99 19.67 -27.98 19.34 -29 19 C-28.38125 18.7525 -27.7625 18.505 -27.125 18.25 C-24.87439205 17.19031178 -24.87439205 17.19031178 -24.07348633 15.09008789 C-22.87789426 12.76225899 -21.80784733 11.82245864 -19.69921875 10.30859375 C-18.72758789 9.60379883 -18.72758789 9.60379883 -17.73632812 8.88476562 C-17.06021484 8.40716797 -16.38410156 7.92957031 -15.6875 7.4375 C-15.02298828 6.95603516 -14.35847656 6.47457031 -13.67382812 5.97851562 C-3.66221217 -1.22073739 -3.66221217 -1.22073739 0 0 Z " fill="#2391F1" transform="translate(193,364)"/>
<path d="M0 0 C0 0.66 0 1.32 0 2 C-1.02738281 2.47308594 -2.05476562 2.94617188 -3.11328125 3.43359375 C-11.25313787 7.2830471 -18.17171886 11.23581887 -24.9609375 17.21484375 C-27 19 -27 19 -29 20 C-25.16335797 11.24160507 -9.96580914 0 0 0 Z " fill="#1966E4" transform="translate(770,434)"/>
<path d="M0 0 C0.33 0 0.66 0 1 0 C0.31694663 6.96545783 -1.2320898 13.59425631 -2.9375 20.375 C-3.20240234 21.46683594 -3.46730469 22.55867188 -3.74023438 23.68359375 C-3.99998047 24.72386719 -4.25972656 25.76414062 -4.52734375 26.8359375 C-4.76187256 27.78001465 -4.99640137 28.7240918 -5.23803711 29.69677734 C-6 32 -6 32 -8 34 C-6.97008966 22.25902212 -4.98198541 10.74793806 0 0 Z " fill="#1C8BF2" transform="translate(280,415)"/>
<path d="M0 0 C0.66 0 1.32 0 2 0 C0.49295313 6.21656832 -4.55147461 9.79475359 -9.71191406 13.09472656 C-21.04990833 20 -21.04990833 20 -24 20 C-24 19.34 -24 18.68 -24 18 C-23.22914063 17.59007812 -22.45828125 17.18015625 -21.6640625 16.7578125 C-20.66117188 16.21898437 -19.65828125 15.68015625 -18.625 15.125 C-17.12839844 14.32449219 -17.12839844 14.32449219 -15.6015625 13.5078125 C-12.94651605 12.1179862 -12.94651605 12.1179862 -11 10 C-10.2575 9.608125 -9.515 9.21625 -8.75 8.8125 C-5.59485072 6.7329698 -3.64767657 4.37685431 -1.33203125 1.42578125 C-0.89246094 0.95527344 -0.45289063 0.48476563 0 0 Z " fill="#1971E8" transform="translate(556,477)"/>
<path d="M0 0 C0.33 0 0.66 0 1 0 C1 3.63 1 7.26 1 11 C0.34 11 -0.32 11 -1 11 C-1.04898437 11.99902344 -1.09796875 12.99804688 -1.1484375 14.02734375 C-1.22320312 15.31769531 -1.29796875 16.60804688 -1.375 17.9375 C-1.47941406 19.86916016 -1.47941406 19.86916016 -1.5859375 21.83984375 C-1.72257812 22.88269531 -1.85921875 23.92554688 -2 25 C-2.66 25.33 -3.32 25.66 -4 26 C-5.25892698 20.05595234 -4.55885589 15.48386812 -3.125 9.625 C-2.93808594 8.80644531 -2.75117188 7.98789062 -2.55859375 7.14453125 C-1.15898945 1.15898945 -1.15898945 1.15898945 0 0 Z " fill="#1A6CEC" transform="translate(324,515)"/>
<path d="M0 0 C0.33 0 0.66 0 1 0 C1.33747251 3.87465111 1.66924222 7.74977038 2 11.625 C2.14308594 13.26662109 2.14308594 13.26662109 2.2890625 14.94140625 C2.37929688 16.00488281 2.46953125 17.06835938 2.5625 18.1640625 C2.64628906 19.13811035 2.73007812 20.1121582 2.81640625 21.11572266 C3.00542023 24.08515232 3.0308649 27.02539483 3 30 C-1.1904257 23.71436145 -1.30136332 16.8797167 -1.1875 9.5625 C-1.18685547 8.74845703 -1.18621094 7.93441406 -1.18554688 7.09570312 C-1.14084821 1.14084821 -1.14084821 1.14084821 0 0 Z " fill="#1A61E1" transform="translate(478,505)"/>
<path d="M0 0 C2.475 0.99 2.475 0.99 5 2 C4.67 3.98 4.34 5.96 4 8 C3.67 8 3.34 8 3 8 C2.67 11.63 2.34 15.26 2 19 C1.67 19 1.34 19 1 19 C0.67 14.71 0.34 10.42 0 6 C-2.475 7.485 -2.475 7.485 -5 9 C-5.99 9 -6.98 9 -8 9 C-7.34 8.01 -6.68 7.02 -6 6 C-5.34 6 -4.68 6 -4 6 C-3.67 5.01 -3.34 4.02 -3 3 C-2.34 3 -1.68 3 -1 3 C-0.67 2.01 -0.34 1.02 0 0 Z " fill="#1B5DE9" transform="translate(587,536)"/>
<path d="M0 0 C0 3 0 3 -1.3984375 4.46484375 C-8.39789674 9.67985587 -16.14125263 13.63841847 -25 14 C-25.99 13.34 -26.98 12.68 -28 12 C-27.17757813 11.84144531 -26.35515625 11.68289063 -25.5078125 11.51953125 C-15.86939998 9.50503625 -7.43314445 6.68983001 0 0 Z " fill="#2087F0" transform="translate(316,480)"/>
<path d="M0 0 C0.66 0.33 1.32 0.66 2 1 C1.16855469 2.37671875 1.16855469 2.37671875 0.3203125 3.78125 C-4.41204565 11.40321869 -4.41204565 11.40321869 -7.3125 19.8125 C-7.6528125 21.3903125 -7.6528125 21.3903125 -8 23 C-8.99 23.33 -9.98 23.66 -11 24 C-10.51481161 18.24491923 -8.87675662 14.19339009 -6.0625 9.1875 C-5.70220703 8.52041016 -5.34191406 7.85332031 -4.97070312 7.16601562 C-3.50073837 4.48326226 -2.17356386 2.17356386 0 0 Z " fill="#1453DD" transform="translate(734,461)"/>
<path d="M0 0 C1.46373047 0.02707031 1.46373047 0.02707031 2.95703125 0.0546875 C3.69308594 0.07789063 4.42914062 0.10109375 5.1875 0.125 C5.1875 0.455 5.1875 0.785 5.1875 1.125 C3.95 1.16625 2.7125 1.2075 1.4375 1.25 C-8.33609149 2.35993468 -16.5798984 7.70732627 -22.8125 15.125 C-23.4725 14.795 -24.1325 14.465 -24.8125 14.125 C-18.82645107 6.01486919 -10.38231454 -0.25017625 0 0 Z " fill="#1247D0" transform="translate(797.8125,460.875)"/>
<path d="M0 0 C7.59 0 15.18 0 23 0 C23 0.33 23 0.66 23 1 C22.05125 1.268125 21.1025 1.53625 20.125 1.8125 C16.74732727 2.74986588 16.74732727 2.74986588 15 6 C12.83125748 5.49396008 11.00032373 5.00016187 9 4 C9 3.34 9 2.68 9 2 C6.36 2 3.72 2 1 2 C0.67 1.34 0.34 0.68 0 0 Z " fill="#2EB8FE" transform="translate(343,389)"/>
<path d="M0 0 C0.66 0 1.32 0 2 0 C1.36653108 9.8187683 -1.15706035 17.77689704 -8 25 C-8 21.6373045 -7.44735955 20.87640283 -5.6875 18.125 C-2.37587715 12.43314822 -1.21940097 6.41424737 0 0 Z " fill="#2797F2" transform="translate(327,455)"/>
<path d="M0 0 C-0.97839844 0.38671875 -1.95679688 0.7734375 -2.96484375 1.171875 C-4.28914534 1.69770809 -5.6133582 2.22376467 -6.9375 2.75 C-7.62175049 3.02078369 -8.30600098 3.29156738 -9.01098633 3.57055664 C-13.48681636 5.35465093 -17.8610328 7.26738336 -22.16796875 9.43359375 C-24.45347304 10.14019955 -25.73596503 9.6428886 -28 9 C-25.12709627 7.70363485 -22.25131838 6.41376901 -19.375 5.125 C-18.56675781 4.76019531 -17.75851563 4.39539063 -16.92578125 4.01953125 C-4.26669408 -1.64103618 -4.26669408 -1.64103618 0 0 Z " fill="#299FF5" transform="translate(219,353)"/>
<path d="M0 0 C0.33 0 0.66 0 1 0 C1.13277344 0.60328125 1.26554687 1.2065625 1.40234375 1.828125 C1.66724609 3.02695312 1.66724609 3.02695312 1.9375 4.25 C2.11152344 5.03890625 2.28554688 5.8278125 2.46484375 6.640625 C2.64144531 7.41921875 2.81804687 8.1978125 3 9 C3.08378906 9.72445312 3.16757812 10.44890625 3.25390625 11.1953125 C3.85762136 13.24820157 3.85762136 13.24820157 6.25 13.9765625 C7.1575 14.19054687 8.065 14.40453125 9 14.625 C10.6802445 15.03074086 12.35178165 15.47920878 14 16 C14.33 16.66 14.66 17.32 15 18 C14.34 18.66 13.68 19.32 13 20 C2.65959586 15.12375591 2.65959586 15.12375591 0.3125 11.125 C-0.06329046 7.36709537 -0.13021382 3.77620069 0 0 Z " fill="#1456DD" transform="translate(461,532)"/>
<path d="M0 0 C2 1 2 1 3.25 3.75 C4.8437145 6.7097555 5.60489118 7.68367215 8.125 9.625 C11 12 11 12 11.875 14.3125 C11.936875 15.1478125 11.936875 15.1478125 12 16 C11.01 16.33 10.02 16.66 9 17 C9 16.34 9 15.68 9 15 C8.34 14.67 7.68 14.34 7 14 C3.62213855 11.05799164 1.72190936 8.13258247 0 4 C0 2.68 0 1.36 0 0 Z " fill="#1B77E7" transform="translate(164,453)"/>
<path d="M0 0 C0 0.33 0 0.66 0 1 C-1.07378906 1.24234375 -2.14757812 1.4846875 -3.25390625 1.734375 C-4.6902409 2.07233609 -6.12643129 2.41091065 -7.5625 2.75 C-8.26697266 2.90726562 -8.97144531 3.06453125 -9.69726562 3.2265625 C-13.45054958 4.12596695 -16.53487796 5.18240927 -19.83984375 7.203125 C-21.40412109 8.09257812 -21.40412109 8.09257812 -23 9 C-23.99 8.67 -24.98 8.34 -26 8 C-16.97849032 2.33035558 -10.72191443 -0.38141198 0 0 Z " fill="#30ACF6" transform="translate(488,370)"/>
<path d="M0 0 C0.33 0 0.66 0 1 0 C0.58180571 6.77763165 -0.05122657 13.79505205 -3 20 C-5.10546875 21.78515625 -5.10546875 21.78515625 -7 23 C-7.66 22.34 -8.32 21.68 -9 21 C-7.68 20.67 -6.36 20.34 -5 20 C-4.72285156 18.72382813 -4.44570313 17.44765625 -4.16015625 16.1328125 C-3.79441043 14.46351107 -3.42851738 12.7942419 -3.0625 11.125 C-2.88009766 10.28324219 -2.69769531 9.44148438 -2.50976562 8.57421875 C-2.33251953 7.76855469 -2.15527344 6.96289062 -1.97265625 6.1328125 C-1.72914429 5.01737061 -1.72914429 5.01737061 -1.48071289 3.87939453 C-1 2 -1 2 0 0 Z " fill="#2393F0" transform="translate(425,456)"/>
<path d="M0 0 C0.33 0 0.66 0 1 0 C1.65720455 8.05075569 -0.77071154 15.35672529 -3 23 C-3.33 23 -3.66 23 -4 23 C-4.23136637 17.4978184 -3.4350346 12.86146222 -2 7.5625 C-1.80921875 6.83095703 -1.6184375 6.09941406 -1.421875 5.34570312 C-0.95549597 3.56180334 -0.47881722 1.78060155 0 0 Z " fill="#1A76ED" transform="translate(428,494)"/>
<path d="M0 0 C0.33 0 0.66 0 1 0 C0.51298949 7.59064664 -0.99763587 14.67059167 -3 22 C-3.66 21.67 -4.32 21.34 -5 21 C-1.58956916 1.58956916 -1.58956916 1.58956916 0 0 Z " fill="#1347D8" transform="translate(804,471)"/>
<path d="M0 0 C-2.36962931 2.78005531 -4.37345809 3.63123885 -7.875 4.5625 C-11.35286396 5.52857332 -14.68097014 6.56175373 -18 8 C-18.66 7.34 -19.32 6.68 -20 6 C-3.95307918 -1.31769306 -3.95307918 -1.31769306 0 0 Z " fill="#1C7CF1" transform="translate(205,497)"/>
<path d="M0 0 C3.12471529 2.27252021 3.88097191 4.89323006 5.0625 8.5 C4.9375 10.875 4.9375 10.875 4.0625 12.5 C3.0725 12.83 2.0825 13.16 1.0625 13.5 C1.10375 12.4275 1.145 11.355 1.1875 10.25 C1.07296173 6.8138518 0.9922839 5.24232448 -0.9375 2.5 C-1.9275 1.84 -2.9175 1.18 -3.9375 0.5 C-1.9375 -0.5 -1.9375 -0.5 0 0 Z " fill="#2190F3" transform="translate(557.9375,458.5)"/>
<path d="M0 0 C0.99 0.33 1.98 0.66 3 1 C2.54851905 3.251385 2.08855496 5.50106998 1.625 7.75 C1.36976563 9.00296875 1.11453125 10.2559375 0.8515625 11.546875 C0.1569875 14.36340848 -0.55680083 16.51518752 -2 19 C-3.29384979 14.51865271 -2.61333104 11.18505684 -1.5625 6.6875 C-1.13130859 4.80611328 -1.13130859 4.80611328 -0.69140625 2.88671875 C-0.46324219 1.93410156 -0.23507812 0.98148437 0 0 Z " fill="#2AA7F6" transform="translate(428,439)"/>
<path d="M0 0 C0.66 0.99 1.32 1.98 2 3 C-0.97 7.95 -0.97 7.95 -4 13 C-4.99 12.67 -5.98 12.34 -7 12 C-7 11.34 -7 10.68 -7 10 C-6.34 10 -5.68 10 -5 10 C-4.9175 9.46375 -4.835 8.9275 -4.75 8.375 C-3.73623902 5.1647569 -1.92839451 2.73707608 0 0 Z " fill="#32B7FA" transform="translate(391,365)"/>
<path d="M0 0 C0.33 0 0.66 0 1 0 C1.03738281 0.96421875 1.07476563 1.9284375 1.11328125 2.921875 C1.17902344 4.18515625 1.24476563 5.4484375 1.3125 6.75 C1.37050781 8.00296875 1.42851563 9.2559375 1.48828125 10.546875 C2.00893544 14.06029714 2.46838215 15.5639149 5 18 C8.10197397 18.80946422 8.10197397 18.80946422 11 19 C10.67 19.66 10.34 20.32 10 21 C6.73964508 20.7036041 4.51980141 20.36386099 1.8125 18.46875 C-0.72771657 15.00879985 -0.43879614 11.85994684 -0.25 7.75 C-0.23195313 7.00492188 -0.21390625 6.25984375 -0.1953125 5.4921875 C-0.14835649 3.66090299 -0.07661652 1.83028351 0 0 Z " fill="#133BC3" transform="translate(589,541)"/>
<path d="M0 0 C0.66 0.33 1.32 0.66 2 1 C0.3989569 2.6280776 -1.20594736 4.25235885 -2.8125 5.875 C-3.70582031 6.77992188 -4.59914063 7.68484375 -5.51953125 8.6171875 C-8.93718398 11.90028697 -10.15671971 13 -15 13 C-14.67 12.01 -14.34 11.02 -14 10 C-12.7315625 9.6596875 -12.7315625 9.6596875 -11.4375 9.3125 C-6.47004021 7.41583353 -3.54322966 3.86697653 0 0 Z " fill="#1E8BFA" transform="translate(663,447)"/>
<path d="M0 0 C1.32 0.66 2.64 1.32 4 2 C3.2884375 2.7734375 3.2884375 2.7734375 2.5625 3.5625 C0.57190593 6.66782675 0.34939182 9.36632504 0 13 C-0.66 13 -1.32 13 -2 13 C-3.46845421 7.52667068 -2.44038726 4.88077452 0 0 Z " fill="#2BA8F9" transform="translate(440,443)"/>
<path d="M0 0 C0.33 0 0.66 0 1 0 C0.51679152 6.2054142 -0.33318124 11.99945246 -2 18 C-4 15 -4 15 -3.828125 12.6953125 C-1.87761945 4.02347024 -1.87761945 4.02347024 0 0 Z " fill="#1556E4" transform="translate(715,483)"/>
<path d="M0 0 C2.30019361 3.45029042 2.43132515 4.94554358 2 9 C-1.6441774 11.4294516 -3.71241272 11.16179575 -8 11 C-5.64046906 8.64046906 -4.22104383 8.50858587 -1 8 C-0.67 5.36 -0.34 2.72 0 0 Z " fill="#218FF6" transform="translate(216,452)"/>
<path d="M0 0 C2.25170312 2.25170312 2.51474 3.32987578 3.1875 6.375 C3.45626953 7.53128906 3.45626953 7.53128906 3.73046875 8.7109375 C4.01304909 11.11082272 3.73503321 12.71670535 3 15 C2.34 14.67 1.68 14.34 1 14 C0.71080072 12.00773831 0.42735449 10.01277818 0.24609375 8.0078125 C0.0424937 5.79670732 0.0424937 5.79670732 -1 3 C-0.67 2.01 -0.34 1.02 0 0 Z " fill="#2393F2" transform="translate(592,450)"/>
<path d="M0 0 C-0.33 0.66 -0.66 1.32 -1 2 C-2.92578125 2.37890625 -2.92578125 2.37890625 -5.3125 2.5625 C-8.31776628 2.80590173 -11.0911893 3.1945856 -14 4 C-14 3.01 -14 2.02 -14 1 C-8.83430559 -0.79217969 -5.48946087 -1.12029814 0 0 Z " fill="#1E77ED" transform="translate(846,373)"/>
<path d="M0 0 C0.33 0 0.66 0 1 0 C1.3259574 3.01510598 1.43138108 4.46077366 -0.5 6.875 C-4.25875841 8.56644129 -6.98067496 7.73687626 -11 7 C-10.67 6.34 -10.34 5.68 -10 5 C-7.03 5.495 -7.03 5.495 -4 6 C-4 5.34 -4 4.68 -4 4 C-2.68 3.67 -1.36 3.34 0 3 C0 2.01 0 1.02 0 0 Z " fill="#1A55DC" transform="translate(359,554)"/>
<path d="M0 0 C0.33 0.66 0.66 1.32 1 2 C2.216875 1.979375 3.43375 1.95875 4.6875 1.9375 C7.91977322 1.93175884 10.84934741 2.21233685 14 3 C14 3.33 14 3.66 14 4 C9.38 4.33 4.76 4.66 0 5 C-0.33 4.34 -0.66 3.68 -1 3 C-1.99 2.34 -2.98 1.68 -4 1 C-2.68 0.67 -1.36 0.34 0 0 Z " fill="#163DDC" transform="translate(743,559)"/>
<path d="M0 0 C2.18697502 2.79624958 3.99152813 5.63307872 5.6875 8.75 C6.12449219 9.54921875 6.56148438 10.3484375 7.01171875 11.171875 C7.33785156 11.77515625 7.66398437 12.3784375 8 13 C7.01 13 6.02 13 5 13 C0.86831514 8.62527485 0 5.89366668 0 0 Z " fill="#1552D9" transform="translate(481,533)"/>
<path d="M0 0 C-0.33 0.66 -0.66 1.32 -1 2 C-3.28515625 2.4140625 -3.28515625 2.4140625 -6.0625 2.625 C-7.44115234 2.73714844 -7.44115234 2.73714844 -8.84765625 2.8515625 C-9.55792969 2.90054687 -10.26820313 2.94953125 -11 3 C-11.33 2.01 -11.66 1.02 -12 0 C-7.91556885 -1.53166168 -4.20544343 -0.63081652 0 0 Z " fill="#2698F9" transform="translate(635,437)"/>
<path d="M0 0 C-1.72343755 0.84511824 -3.45404053 1.67563354 -5.1875 2.5 C-6.15042969 2.9640625 -7.11335937 3.428125 -8.10546875 3.90625 C-10.98922693 4.99592921 -12.95354861 5.22277524 -16 5 C-14.54987453 2.09974906 -12.68687091 1.91293145 -9.6875 0.8125 C-8.72199219 0.44769531 -7.75648438 0.08289063 -6.76171875 -0.29296875 C-3.9652203 -1.008904 -2.66140462 -0.99249531 0 0 Z " fill="#1352DD" transform="translate(578,527)"/>
<path d="M0 0 C2 2 2 2 2.046875 5.00390625 C1.89992188 6.76541016 1.89992188 6.76541016 1.75 8.5625 C1.61851562 10.32787109 1.61851562 10.32787109 1.484375 12.12890625 C1.32453125 13.07636719 1.1646875 14.02382813 1 15 C0.01 15.495 0.01 15.495 -1 16 C-2.24327778 10.15659442 -1.57300962 5.73303505 0 0 Z " fill="#1551E3" transform="translate(665,513)"/>
<path d="M0 0 C0.66 0 1.32 0 2 0 C1.67 5.94 1.34 11.88 1 18 C0.67 18 0.34 18 0 18 C-0.19620767 15.93831015 -0.38160753 13.87559002 -0.5625 11.8125 C-0.66691406 10.66394531 -0.77132812 9.51539063 -0.87890625 8.33203125 C-0.98859985 5.31368801 -0.74002389 2.91076064 0 0 Z " fill="#184DE0" transform="translate(839,504)"/>
<path d="M0 0 C0.33 0.99 0.66 1.98 1 3 C-0.21484375 5.26171875 -0.21484375 5.26171875 -1.9375 7.6875 C-2.78634766 8.89986328 -2.78634766 8.89986328 -3.65234375 10.13671875 C-4.09707031 10.75160156 -4.54179687 11.36648438 -5 12 C-5.66 11.01 -6.32 10.02 -7 9 C-4.69 6.03 -2.38 3.06 0 0 Z " fill="#208DF3" transform="translate(500,457)"/>
<path d="M0 0 C-1.98 2.31 -3.96 4.62 -6 7 C-6.66 6.67 -7.32 6.34 -8 6 C-7.1875 3.0625 -7.1875 3.0625 -6 0 C-3 -1 -3 -1 0 0 Z " fill="#2391F4" transform="translate(542,464)"/>
<path d="M0 0 C0.125 2.875 0.125 2.875 0 6 C-0.66 6.66 -1.32 7.32 -2 8 C-2.33 6.02 -2.66 4.04 -3 2 C-6.3 1.67 -9.6 1.34 -13 1 C-13 0.67 -13 0.34 -13 0 C-11.58456585 -0.19658808 -10.16755969 -0.38187546 -8.75 -0.5625 C-7.96109375 -0.66691406 -7.1721875 -0.77132813 -6.359375 -0.87890625 C-3.99467126 -1.00027349 -2.2488963 -0.69633257 0 0 Z " fill="#195CE2" transform="translate(807,462)"/>
<path d="M0 0 C2 2 2 2 2.046875 4.12890625 C1.89992187 5.33353516 1.89992187 5.33353516 1.75 6.5625 C1.66234375 7.36816406 1.5746875 8.17382812 1.484375 9.00390625 C1.32453125 9.66261719 1.1646875 10.32132812 1 11 C0.01 11.495 0.01 11.495 -1 12 C-2.36884358 7.48281619 -1.47075246 4.41225737 0 0 Z " fill="#2092F6" transform="translate(225,415)"/>
<path d="M0 0 C1.33256282 3.64120668 0.65840377 5.66876554 -0.8125 9.1875 C-1.16957031 10.06792969 -1.52664063 10.94835937 -1.89453125 11.85546875 C-3 14 -3 14 -5 15 C-4.37321829 11.33827525 -3.35548154 8.1181005 -1.9375 4.6875 C-1.39416016 3.36298828 -1.39416016 3.36298828 -0.83984375 2.01171875 C-0.56269531 1.34785156 -0.28554688 0.68398438 0 0 Z " fill="#166EEA" transform="translate(525,484)"/>
<path d="M0 0 C0.99 0.33 1.98 0.66 3 1 C1.21024844 2.48148332 -0.58186057 3.96011906 -2.375 5.4375 C-3.87160156 6.67306641 -3.87160156 6.67306641 -5.3984375 7.93359375 C-8 10 -8 10 -10 11 C-8.56285993 7.64170896 -6.79022601 5.60029302 -4.0625 3.1875 C-3.02802734 2.24970703 -3.02802734 2.24970703 -1.97265625 1.29296875 C-1.32167969 0.86628906 -0.67070313 0.43960937 0 0 Z " fill="#145ADC" transform="translate(751,443)"/>
<path d="M0 0 C4.03384128 2.07143201 5.92856799 3.96615872 8 8 C7.34 8.66 6.68 9.32 6 10 C5.566875 9.195625 5.13375 8.39125 4.6875 7.5625 C3.19525998 4.72153646 3.19525998 4.72153646 0 4 C-0.33 3.01 -0.66 2.02 -1 1 C-0.67 0.67 -0.34 0.34 0 0 Z " fill="#259EF7" transform="translate(584,441)"/>
<path d="M0 0 C-0.33 0.66 -0.66 1.32 -1 2 C-3.50390625 2.4140625 -3.50390625 2.4140625 -6.5625 2.625 C-7.57441406 2.69976562 -8.58632813 2.77453125 -9.62890625 2.8515625 C-10.41136719 2.90054687 -11.19382812 2.94953125 -12 3 C-8.61613364 -0.38386636 -4.56431325 -1.75550509 0 0 Z " fill="#299EF5" transform="translate(537,438)"/>
<path d="M0 0 C2.4453125 0.07421875 2.4453125 0.07421875 5.125 0.6875 C6.45917969 0.97173828 6.45917969 0.97173828 7.8203125 1.26171875 C10 2 10 2 11 4 C4.07 3.505 4.07 3.505 -3 3 C-2.01 2.01 -1.02 1.02 0 0 Z " fill="#217BEB" transform="translate(693,432)"/>
<path d="M0 0 C1.32 0.33 2.64 0.66 4 1 C3.67 1.99 3.34 2.98 3 4 C2.93259135 5.56118428 2.91485544 7.1250252 2.9375 8.6875 C2.94652344 9.49574219 2.95554687 10.30398438 2.96484375 11.13671875 C2.97644531 11.75160156 2.98804688 12.36648438 3 13 C2.67 13 2.34 13 2 13 C-0.28571429 4.57142857 -0.28571429 4.57142857 0 0 Z " fill="#41D0FE" transform="translate(504,376)"/>
<path d="M0 0 C2.97 0 5.94 0 9 0 C9.66 1.32 10.32 2.64 11 4 C9.54054712 3.91291331 8.08234132 3.80473093 6.625 3.6875 C5.81289063 3.62949219 5.00078125 3.57148438 4.1640625 3.51171875 C2 3 2 3 0 0 Z " fill="#3EC7FA" transform="translate(385,339)"/>
<path d="M0 0 C3 1 3 1 3 1 Z M-2 1 C-1.34 1 -0.68 1 0 1 C-0.33 2.65 -0.66 4.3 -1 6 C-1.99 6 -2.98 6 -4 6 C-4.33 6.99 -4.66 7.98 -5 9 C-5.33 8.34 -5.66 7.68 -6 7 C-3.68421053 2.68421053 -3.68421053 2.68421053 -2 1 Z " fill="#31B9FE" transform="translate(345,442)"/>
<path d="M0 0 C0.66 0 1.32 0 2 0 C2 1.98 2 3.96 2 6 C1.01 6.33 0.02 6.66 -1 7 C-1.73323796 9.01508358 -1.73323796 9.01508358 -2 11 C-3 9 -3 9 -2.44140625 6.8359375 C-2.15136719 6.02382813 -1.86132812 5.21171875 -1.5625 4.375 C-1.27503906 3.55773437 -0.98757813 2.74046875 -0.69140625 1.8984375 C-0.46324219 1.27195312 -0.23507812 0.64546875 0 0 Z " fill="#248FF4" transform="translate(652,438)"/>
<path d="M0 0 C-0.33 0.66 -0.66 1.32 -1 2 C-9.57142857 2.28571429 -9.57142857 2.28571429 -13 0 C-8.34462607 -0.83796731 -4.62921525 -1.0161692 0 0 Z " fill="#3EC8FC" transform="translate(371,345)"/>
<path d="M0 0 C0.66 0.33 1.32 0.66 2 1 C-0.57784846 3.64752004 -2.91648098 5.94432065 -6 8 C-6 7.01 -6 6.02 -6 5 C-5.01 4.67 -4.02 4.34 -3 4 C-2.67 3.01 -2.34 2.02 -2 1 C-1.34 0.67 -0.68 0.34 0 0 Z " fill="#1852DC" transform="translate(586,538)"/>
<path d="M0 0 C0.68359375 1.734375 0.68359375 1.734375 1 4 C-0.21484375 6.140625 -0.21484375 6.140625 -1.9375 8.25 C-2.50339844 8.95640625 -3.06929688 9.6628125 -3.65234375 10.390625 C-4.31943359 11.18726563 -4.31943359 11.18726563 -5 12 C-5 8.55639368 -4.20408468 7.25204608 -2.5 4.3125 C-2.0359375 3.50425781 -1.571875 2.69601562 -1.09375 1.86328125 C-0.7328125 1.24839844 -0.371875 0.63351562 0 0 Z " fill="#1F8DF0" transform="translate(324,468)"/>
<path d="M0 0 C-1.3125 1.5 -1.3125 1.5 -3 3 C-3.99 3 -4.98 3 -6 3 C-6 2.34 -6 1.68 -6 1 C-6.99 0.67 -7.98 0.34 -9 0 C-5.62182575 -0.84454356 -3.32534757 -1.10844919 0 0 Z " fill="#43CAFB" transform="translate(378,343)"/>
<path d="M0 0 C3.99500618 1.3697164 6.80009492 3.25722422 10 6 C5.96825194 5.72510809 4.43105369 5.46508424 1.625 2.4375 C0.820625 1.2309375 0.820625 1.2309375 0 0 Z " fill="#1A66DB" transform="translate(153,462)"/>
<path d="M0 0 C0.66 0.99 1.32 1.98 2 3 C-0.33333333 5.33333333 -2.66666667 7.66666667 -5 10 C-4.38545304 6.00544473 -2.29353263 3.25533664 0 0 Z " fill="#3ED0FE" transform="translate(391,365)"/>
<path d="M0 0 C3.82097239 0.53069061 6.06171403 1.49701566 9 4 C8.67 4.99 8.34 5.98 8 7 C2.25 2.25 2.25 2.25 0 0 Z " fill="#1770EA" transform="translate(705,436)"/>
<path d="M0 0 C6.75 1.625 6.75 1.625 9 5 C6.03 4.01 3.06 3.02 0 2 C0 1.34 0 0.68 0 0 Z " fill="#1866E9" transform="translate(799,433)"/>
<path d="M0 0 C2.5 0.3125 2.5 0.3125 5 1 C5.33 1.66 5.66 2.32 6 3 C5.34 3.66 4.68 4.32 4 5 C2.35 3.68 0.7 2.36 -1 1 C-0.67 0.67 -0.34 0.34 0 0 Z " fill="#1B5DE5" transform="translate(470,547)"/>
<path d="M0 0 C0 0.66 0 1.32 0 2 C-2.875 2.625 -2.875 2.625 -6 3 C-6.66 2.34 -7.32 1.68 -8 1 C-5.07175348 0.02391783 -3.04386724 -0.08226668 0 0 Z " fill="#1F8EF5" transform="translate(207,463)"/>
<path d="M0 0 C-0.33 0.99 -0.66 1.98 -1 3 C-3.4375 2.625 -3.4375 2.625 -6 2 C-6.33 1.34 -6.66 0.68 -7 0 C-4.3333581 -1.33332095 -2.83319697 -0.67102033 0 0 Z " fill="#29AAFA" transform="translate(577,437)"/>
<path d="M0 0 C-0.99 1.485 -0.99 1.485 -2 3 C-3.9375 2.625 -3.9375 2.625 -6 2 C-6.33 1.34 -6.66 0.68 -7 0 C-3.98968256 -0.93423645 -3.13349732 -1.04449911 0 0 Z " fill="#40CBFD" transform="translate(385,341)"/>
<path d="M0 0 C2.64 0 5.28 0 8 0 C8 0.33 8 0.66 8 1 C5.36 1 2.72 1 0 1 C0 0.67 0 0.34 0 0 Z " fill="#5FD2FA" transform="translate(329,344)"/>
<path d="M0 0 C2.31 0 4.62 0 7 0 C7 0.33 7 0.66 7 1 C4.69 1 2.38 1 0 1 C0 0.67 0 0.34 0 0 Z " fill="#4CC6FB" transform="translate(240,344)"/>
<path d="M0 0 C1.65 0 3.3 0 5 0 C5 0.33 5 0.66 5 1 C3.35 1 1.7 1 0 1 C0 0.67 0 0.34 0 0 Z " fill="#5CD3FB" transform="translate(352,344)"/>
<path d="M0 0 C1.485 0.99 1.485 0.99 3 2 C2.01 2 1.02 2 0 2 C0 1.34 0 0.68 0 0 Z " fill="#2A8FF9" transform="translate(524,495)"/>
<path d="M0 0 C0.66 0.66 1.32 1.32 2 2 C1.34 2 0.68 2 0 2 C0 1.34 0 0.68 0 0 Z " fill="#35A5FD" transform="translate(209,458)"/>
<path d="M0 0 C3 1 3 1 3 1 Z " fill="#398BED" transform="translate(852,368)"/>
<path d="M0 0 C2 1 2 1 2 1 Z " fill="#256BED" transform="translate(584,543)"/>
<path d="" fill="#2D5EDF" transform="translate(0,0)"/>
<path d="" fill="#2D80F3" transform="translate(0,0)"/>
<path d="M0 0 C2 1 2 1 2 1 Z " fill="#2575F5" transform="translate(560,529)"/>
<path d="" fill="#3299FB" transform="translate(0,0)"/>
<path d="M0 0 C2 1 2 1 2 1 Z " fill="#36A8FD" transform="translate(555,461)"/>
<path d="" fill="#41BBFD" transform="translate(0,0)"/>
<path d="M0 0 C2 1 2 1 2 1 Z " fill="#2985F7" transform="translate(801,432)"/>
<path d="M0 0 C2 1 2 1 2 1 Z " fill="#3089F4" transform="translate(769,432)"/>
<path d="M0 0 C2 1 2 1 2 1 Z " fill="#3295F4" transform="translate(700,432)"/>
<path d="M0 0 C2 1 2 1 2 1 Z " fill="#3497F4" transform="translate(689,432)"/>
<path d="M0 0 C2 1 2 1 2 1 Z " fill="#44C3FC" transform="translate(336,399)"/>
<path d="M0 0 C2 1 2 1 2 1 Z " fill="#51C9F9" transform="translate(481,368)"/>
<path d="" fill="#57CFFC" transform="translate(0,0)"/>
<path d="M0 0 C2 1 2 1 2 1 Z " fill="#5CD3FC" transform="translate(342,344)"/>
<path d="M0 0 C2 1 2 1 2 1 Z " fill="#5CD3FD" transform="translate(339,344)"/>
<path d="" fill="#5B5B5B" transform="translate(0,0)"/>
<path d="" fill="#2E63D8" transform="translate(0,0)"/>
<path d="" fill="#3363D6" transform="translate(0,0)"/>
<path d="" fill="#3565D7" transform="translate(0,0)"/>
<path d="" fill="#2869EC" transform="translate(0,0)"/>
<path d="" fill="#2957DB" transform="translate(0,0)"/>
<path d="" fill="#3273E2" transform="translate(0,0)"/>
<path d="" fill="#2E69E4" transform="translate(0,0)"/>
<path d="" fill="#3574E4" transform="translate(0,0)"/>
<path d="" fill="#3375E5" transform="translate(0,0)"/>
<path d="" fill="#2A56DA" transform="translate(0,0)"/>
<path d="" fill="#3067DF" transform="translate(0,0)"/>
<path d="" fill="#306CE5" transform="translate(0,0)"/>
<path d="" fill="#3877E2" transform="translate(0,0)"/>
<path d="" fill="#2F74E8" transform="translate(0,0)"/>
<path d="" fill="#2455E1" transform="translate(0,0)"/>
<path d="" fill="#2355E4" transform="translate(0,0)"/>
<path d="" fill="#2353E1" transform="translate(0,0)"/>
<path d="" fill="#275FE9" transform="translate(0,0)"/>
<path d="" fill="#287AF6" transform="translate(0,0)"/>
<path d="" fill="#2E7EF2" transform="translate(0,0)"/>
<path d="" fill="#2E77F2" transform="translate(0,0)"/>
<path d="" fill="#276DF1" transform="translate(0,0)"/>
<path d="" fill="#2978EF" transform="translate(0,0)"/>
<path d="" fill="#3060DE" transform="translate(0,0)"/>
<path d="" fill="#235BEC" transform="translate(0,0)"/>
<path d="" fill="#2F81F4" transform="translate(0,0)"/>
<path d="" fill="#2778F6" transform="translate(0,0)"/>
<path d="" fill="#2E85F6" transform="translate(0,0)"/>
<path d="" fill="#2776F7" transform="translate(0,0)"/>
<path d="" fill="#2A80F5" transform="translate(0,0)"/>
<path d="" fill="#3189F8" transform="translate(0,0)"/>
<path d="" fill="#287DF4" transform="translate(0,0)"/>
<path d="" fill="#2F8CF6" transform="translate(0,0)"/>
<path d="" fill="#1F5DF2" transform="translate(0,0)"/>
<path d="" fill="#2A81F6" transform="translate(0,0)"/>
<path d="" fill="#2263F3" transform="translate(0,0)"/>
<path d="" fill="#2064F4" transform="translate(0,0)"/>
<path d="" fill="#1E5CF1" transform="translate(0,0)"/>
<path d="" fill="#2D85F5" transform="translate(0,0)"/>
<path d="" fill="#2E93FD" transform="translate(0,0)"/>
<path d="" fill="#3398FC" transform="translate(0,0)"/>
<path d="" fill="#2A8FF6" transform="translate(0,0)"/>
<path d="" fill="#2374FA" transform="translate(0,0)"/>
<path d="" fill="#2790F9" transform="translate(0,0)"/>
<path d="" fill="#227AFA" transform="translate(0,0)"/>
<path d="" fill="#2568EF" transform="translate(0,0)"/>
<path d="" fill="#389EFB" transform="translate(0,0)"/>
<path d="" fill="#329EF7" transform="translate(0,0)"/>
<path d="" fill="#35A0FD" transform="translate(0,0)"/>
<path d="" fill="#2D93FA" transform="translate(0,0)"/>
<path d="" fill="#2B96FD" transform="translate(0,0)"/>
<path d="" fill="#266AEE" transform="translate(0,0)"/>
<path d="" fill="#38A8FD" transform="translate(0,0)"/>
<path d="" fill="#35A4FA" transform="translate(0,0)"/>
<path d="" fill="#36A8F8" transform="translate(0,0)"/>
<path d="" fill="#37ACFC" transform="translate(0,0)"/>
<path d="" fill="#3AAFFD" transform="translate(0,0)"/>
<path d="" fill="#3595F2" transform="translate(0,0)"/>
<path d="" fill="#3DB4FE" transform="translate(0,0)"/>
<path d="" fill="#2170F7" transform="translate(0,0)"/>
<path d="" fill="#36ADFD" transform="translate(0,0)"/>
<path d="" fill="#329DFB" transform="translate(0,0)"/>
<path d="" fill="#3CB3FF" transform="translate(0,0)"/>
<path d="" fill="#3DB3FB" transform="translate(0,0)"/>
<path d="" fill="#35A1FC" transform="translate(0,0)"/>
<path d="" fill="#35A4FA" transform="translate(0,0)"/>
<path d="" fill="#2B73F1" transform="translate(0,0)"/>
<path d="" fill="#35A7FD" transform="translate(0,0)"/>
<path d="" fill="#3D98F1" transform="translate(0,0)"/>
<path d="" fill="#45C0FB" transform="translate(0,0)"/>
<path d="" fill="#36AAFC" transform="translate(0,0)"/>
<path d="" fill="#3198F9" transform="translate(0,0)"/>
<path d="" fill="#42BCFF" transform="translate(0,0)"/>
<path d="" fill="#42BBFE" transform="translate(0,0)"/>
<path d="" fill="#3FB7FB" transform="translate(0,0)"/>
<path d="" fill="#46BFFC" transform="translate(0,0)"/>
<path d="" fill="#4099EF" transform="translate(0,0)"/>
<path d="" fill="#2F89F6" transform="translate(0,0)"/>
<path d="" fill="#49BFF9" transform="translate(0,0)"/>
<path d="" fill="#41A7F8" transform="translate(0,0)"/>
<path d="" fill="#47B7FC" transform="translate(0,0)"/>
<path d="" fill="#43BDFE" transform="translate(0,0)"/>
<path d="" fill="#49C2FC" transform="translate(0,0)"/>
<path d="" fill="#46C0FE" transform="translate(0,0)"/>
<path d="" fill="#48C3FE" transform="translate(0,0)"/>
<path d="" fill="#48C2FF" transform="translate(0,0)"/>
<path d="" fill="#47C2FE" transform="translate(0,0)"/>
<path d="" fill="#2883F8" transform="translate(0,0)"/>
<path d="" fill="#3799F7" transform="translate(0,0)"/>
<path d="" fill="#3DA2F5" transform="translate(0,0)"/>
<path d="" fill="#45B8FB" transform="translate(0,0)"/>
<path d="" fill="#49B9FA" transform="translate(0,0)"/>
<path d="" fill="#48BAFB" transform="translate(0,0)"/>
<path d="" fill="#47BBFC" transform="translate(0,0)"/>
<path d="" fill="#46C2FC" transform="translate(0,0)"/>
<path d="" fill="#32A2FD" transform="translate(0,0)"/>
<path d="" fill="#42BCFC" transform="translate(0,0)"/>
<path d="" fill="#2A84F6" transform="translate(0,0)"/>
<path d="" fill="#37A5FA" transform="translate(0,0)"/>
<path d="" fill="#3DA4F3" transform="translate(0,0)"/>
<path d="" fill="#38B0FF" transform="translate(0,0)"/>
<path d="" fill="#37B1FB" transform="translate(0,0)"/>
<path d="" fill="#47C6FD" transform="translate(0,0)"/>
<path d="" fill="#40AAF4" transform="translate(0,0)"/>
<path d="" fill="#50C2FA" transform="translate(0,0)"/>
<path d="" fill="#3EADF7" transform="translate(0,0)"/>
<path d="" fill="#52CEFE" transform="translate(0,0)"/>
<path d="" fill="#3C90F1" transform="translate(0,0)"/>
<path d="" fill="#58C9F9" transform="translate(0,0)"/>
<path d="" fill="#53C6FD" transform="translate(0,0)"/>
<path d="" fill="#58C8F9" transform="translate(0,0)"/>
<path d="" fill="#52C5FA" transform="translate(0,0)"/>
<path d="" fill="#53D2FA" transform="translate(0,0)"/>
<path d="" fill="#4BBAF9" transform="translate(0,0)"/>
<path d="" fill="#4ABEFA" transform="translate(0,0)"/>
<path d="" fill="#4CBCFA" transform="translate(0,0)"/>
<path d="" fill="#4CC4FD" transform="translate(0,0)"/>
<path d="" fill="#4EC5FD" transform="translate(0,0)"/>
<path d="" fill="#5FCFF8" transform="translate(0,0)"/>
<path d="" fill="#5ED2FC" transform="translate(0,0)"/>
<path d="" fill="#64D3FA" transform="translate(0,0)"/>
<path d="" fill="#585A5B" transform="translate(0,0)"/>
</svg>
